<svg id="Component_173_9" data-name="Component 173 – 9" xmlns="http://www.w3.org/2000/svg" xmlns:xlink="http://www.w3.org/1999/xlink" width="130" height="130" viewBox="0 0 130 130">
  <defs>
    <clipPath id="clip-path">
      <circle id="Ellipse_452" data-name="Ellipse 452" cx="65" cy="65" r="65" fill="#cbecf1"/>
    </clipPath>
    <clipPath id="clip-path-2">
      <circle id="Ellipse_454" data-name="Ellipse 454" cx="65" cy="65" r="65" transform="translate(0)" fill="#cbecf1" stroke="#66c9d7" stroke-width="6"/>
    </clipPath>
  </defs>
  <g id="Mask_Group_59" data-name="Mask Group 59" opacity="0.498" clip-path="url(#clip-path)">
    <g id="Group_2224" data-name="Group 2224" transform="translate(-5.958 16.576)">
      <g id="Group_2219" data-name="Group 2219" transform="translate(25.292 57.171)">
        <path id="Path_2869" data-name="Path 2869" d="M158.884,167.17l-.13.065a.33.33,0,0,1-.1-.059Z" transform="translate(-158.65 -167.17)" fill="#fff"/>
        <path id="Path_2870" data-name="Path 2870" d="M158.65,167.177a.33.33,0,0,0,.1.059l.13-.065Z" transform="translate(-158.65 -167.17)" fill="#1e22aa"/>
      </g>
      <g id="Group_2220" data-name="Group 2220" transform="translate(51.532 25.528)">
        <path id="Path_2871" data-name="Path 2871" d="M199.027,146.75v.007l-.007-.007Z" transform="translate(-199.02 -128.38)" fill="#fff"/>
        <path id="Path_2872" data-name="Path 2872" d="M208.251,118.945c-.078.169-1.82,4.082-4.3,4.082h-.091a5.863,5.863,0,0,1-2.808-.826.319.319,0,0,1-.1-.448.324.324,0,0,1,.449-.091,5.389,5.389,0,0,0,2.483.715c2.067.072,3.75-3.653,3.77-3.692a.326.326,0,0,1,.6.26Z" transform="translate(-199.677 -118.489)" fill="#fff"/>
        <path id="Path_2873" data-name="Path 2873" d="M199.02,146.75l.007.007v-.007Z" transform="translate(-199.02 -128.38)" fill="#1e22aa"/>
      </g>
      <g id="Group_2221" data-name="Group 2221" transform="translate(51.532 25.528)">
        <path id="Path_2874" data-name="Path 2874" d="M199.027,146.75v.007l-.007-.007Z" transform="translate(-199.02 -128.38)" fill="#fff"/>
        <path id="Path_2875" data-name="Path 2875" d="M208.251,118.945c-.078.169-1.82,4.082-4.3,4.082h-.091a5.863,5.863,0,0,1-2.808-.826.319.319,0,0,1-.1-.448.324.324,0,0,1,.449-.091,5.389,5.389,0,0,0,2.483.715c2.067.072,3.75-3.653,3.77-3.692a.326.326,0,0,1,.6.26Z" transform="translate(-199.677 -118.489)" fill="#fff"/>
        <path id="Path_2876" data-name="Path 2876" d="M199.027,146.75v.007l-.007-.007Z" transform="translate(-199.02 -128.38)" fill="#1e22aa"/>
      </g>
      <g id="Thumb_ThickLine" transform="translate(25.292 43.898)">
        <g id="Group_2222" data-name="Group 2222">
          <path id="Path_2877" data-name="Path 2877" d="M199.027,146.75v.007l-.007-.007Z" transform="translate(-172.779 -146.75)" fill="#fff"/>
          <path id="Path_2878" data-name="Path 2878" d="M158.884,167.17l-.13.065a.33.33,0,0,1-.1-.059Z" transform="translate(-158.65 -153.897)" fill="#1e22aa"/>
        </g>
      </g>
      <g id="Thumb" transform="translate(0 0)">
        <g id="Group_2223" data-name="Group 2223">
          <path id="Path_2879" data-name="Path 2879" d="M158.884,167.17l-.13.065a.33.33,0,0,1-.1-.059Z" transform="translate(-133.358 -109.999)" fill="#fff"/>
          <path id="Path_2880" data-name="Path 2880" d="M208.251,118.945c-.078.169-1.82,4.082-4.3,4.082h-.091a5.863,5.863,0,0,1-2.808-.826.319.319,0,0,1-.1-.448.324.324,0,0,1,.449-.091,5.389,5.389,0,0,0,2.483.715c2.067.072,3.75-3.653,3.77-3.692a.326.326,0,0,1,.6.26Z" transform="translate(-148.145 -92.961)" fill="#fff"/>
          <path id="Path_2881" data-name="Path 2881" d="M199.027,146.75v.007l-.007-.007Z" transform="translate(-147.488 -102.852)" fill="#1e22aa"/>
          <path id="Path_2882" data-name="Path 2882" d="M171.279,123.119l-.007-.007h.007Zm52.065-41.873c-1.5-2.34-4.394-1.43-6.494-.371a4.432,4.432,0,0,0-2.4-1.527c-2.086-.514-4.206.546-6.039,1.664-8.47,5.311-18.6,9.094-25.987,11.85-4.609,1.723-7.937,2.971-9.75,4.121-3.3,2.047-19.721,12.194-20.579,12.721a39.528,39.528,0,0,0-10.205,8.639l-20.774-1.079a1.305,1.305,0,0,0-.968.357,1.318,1.318,0,0,0-.4.942v20.384a1.3,1.3,0,0,0,1.3,1.3h.071L143.2,139.1a12.528,12.528,0,0,0,6.143,1.683c.208.007.416.007.63.007,9.484,0,16.835-6.019,19.292-9.906.345-.54.657-1.073.975-1.619a32.508,32.508,0,0,1,2.386-3.66l34.1-21.918c3.126-1.742,4.251-3.387,4.5-4.7l5.291-3.055c4.323-2.191,5.674-4.219,5.785-5.837C225.671,86.817,224.8,83.528,223.344,81.246ZM170.772,122.7c-.319.39-.6.761-.871,1.112-.033.046-.059.078-.091.117v.007q-.283.37-.526.721a.006.006,0,0,1-.007.007v.007c-.156.241-.312.455-.462.676v.006c-.539.819-.969,1.554-1.384,2.269-.3.514-.592,1.014-.917,1.521a7.443,7.443,0,0,1-.507.708,21.719,21.719,0,0,1-11.973,7.248,19.188,19.188,0,0,1-4.6.429c-.189-.007-.377-.013-.559-.032a9.051,9.051,0,0,1-3.738-1.047.329.329,0,0,1-.1-.059,1.828,1.828,0,0,1-.247-.136l-.1.156-.1.007-22.243,1.163V119.934l18.772.975.78.462a17.22,17.22,0,0,0-1.326,1.918.323.323,0,0,0,.559.325c.02-.033.039-.059.059-.091a15.537,15.537,0,0,1,1.281-1.82c.182-.234.377-.462.579-.689.175-.208.357-.41.546-.611l.026-.026c.182-.208.377-.41.572-.611.41-.416.832-.832,1.261-1.235a65.249,65.249,0,0,1,8.145-6.318s17.238-10.641,20.625-12.747c1.579-1,4.953-2.262,9.23-3.861,7.508-2.808,17.791-6.643,26.514-12.11,1.781-1.092,2.984-1.508,3.79-1.307a1.713,1.713,0,0,1,1.073.878,4.631,4.631,0,0,1,.741,3,4.156,4.156,0,0,1-.117.566c-.65,2.262-3.224,3.575-3.27,3.6L184.76,106.486a6.992,6.992,0,0,0-.078-2.594c-.02-.059-.033-.117-.046-.169a4.326,4.326,0,0,0-3.107-3.165,4.2,4.2,0,0,0-1.1-.1,5.328,5.328,0,0,0-3.712,1.885c-9.172,9.438-16.088,11-21.645,12.266-.552.13-1.092.253-1.618.377q-.7.166-1.385.351l.136.507.039.123v.007l.169.618c.936-.253,1.911-.481,2.945-.709,5.727-1.3,12.851-2.918,22.308-12.649a4.033,4.033,0,0,1,2.938-1.476,2.571,2.571,0,0,1,.631.072,2.99,2.99,0,0,1,2.151,2.243,4.735,4.735,0,0,1,.111.527,6.6,6.6,0,0,1-.228,2.776,7.532,7.532,0,0,1-.241.741,13.868,13.868,0,0,1-1.216,2.49c-.072.124-.15.247-.227.364a26.623,26.623,0,0,1-3.926,4.713c-.643.585-1.242,1.138-1.8,1.671a.006.006,0,0,0-.007.006A58.691,58.691,0,0,0,170.772,122.7Zm44.9-29.627h-.006c-.189.1-.364.195-.546.286l-2.594,1.5-.02.013-4.745,2.743h-.007L184.35,111.127a.326.326,0,0,0-.143.39.694.694,0,0,0,.462.455,1.316,1.316,0,0,0,1.021-.3l21.275-12.279,1.339-.773c-.312.747-1.879,1.885-3.094,2.555L173.5,121.559c1.281-1.384,2.912-3,5.044-4.934a33.314,33.314,0,0,0,2.34-2.509c.442-.527.839-1.04,1.19-1.534.026-.039.046-.072.072-.1a17.647,17.647,0,0,0,1.579-2.685.735.735,0,0,0,.559.39.868.868,0,0,0,.663-.273l31.746-18.33,2.646-1.527C219.073,90.918,217.286,92.192,215.674,93.076Zm3.536-4.2c-.084.059-.6.371-1.475.878-5.252,3.081-23.225,13.416-33.345,19.227l-.4.227c.175-.423.318-.826.435-1.209,1.9-1.137,29.192-17.394,29.7-17.7.39-.24,2.659-2.327,2.685-4.816a3.817,3.817,0,0,0-.149-1.131c1.807-1.1,3.926-1.989,4.212-1.534C221.907,84.444,222.518,86.433,219.21,88.877Z" transform="translate(-119.74 -79.215)" fill="#1e22aa"/>
          <path id="Path_2883" data-name="Path 2883" d="M216.222,84.641a1.712,1.712,0,0,0-1.073-.877c-.806-.2-2.008.215-3.789,1.307-8.723,5.467-19.006,9.3-26.514,12.11-4.277,1.6-7.651,2.86-9.23,3.861-3.387,2.106-20.625,12.747-20.625,12.747a65.247,65.247,0,0,0-8.145,6.318c-.429.4-.852.819-1.261,1.235-.2.2-.39.4-.572.611l-.026.026c-.188.2-.37.4-.546.611-.2.228-.4.455-.579.689a15.536,15.536,0,0,0-1.281,1.82c-.02.032-.039.058-.059.091a.323.323,0,0,1-.559-.325,17.22,17.22,0,0,1,1.326-1.918l-.78-.462-18.772-.975v17.648l22.243-1.163.1-.007.1-.156a1.833,1.833,0,0,0,.247.136l.234-.007-.13.065a9.051,9.051,0,0,0,3.738,1.047c.182.02.371.026.559.033a19.189,19.189,0,0,0,4.6-.429,21.718,21.718,0,0,0,11.973-7.248,7.436,7.436,0,0,0,.507-.708c.325-.507.617-1.007.917-1.521.416-.715.845-1.45,1.385-2.269v-.006c.15-.221.306-.436.461-.676v-.006a.006.006,0,0,0,.007-.007q.244-.351.527-.721v-.007c.033-.039.058-.072.091-.117.266-.351.552-.721.871-1.112a58.691,58.691,0,0,1,5.077-5.35.006.006,0,0,1,.007-.006c.559-.533,1.157-1.086,1.8-1.671a26.623,26.623,0,0,0,3.926-4.713c.078-.117.156-.24.227-.364a13.868,13.868,0,0,0,1.216-2.49,7.526,7.526,0,0,0,.24-.741,6.6,6.6,0,0,0,.228-2.776,4.729,4.729,0,0,0-.111-.527,2.99,2.99,0,0,0-2.151-2.243,2.571,2.571,0,0,0-.631-.072,4.033,4.033,0,0,0-2.938,1.476c-9.458,9.731-16.582,11.349-22.308,12.649-1.033.228-2.008.455-2.945.709l-.169-.618v-.006l-.039-.123-.136-.507q.683-.185,1.385-.351c.527-.123,1.066-.247,1.618-.377,5.558-1.261,12.474-2.828,21.645-12.266a5.328,5.328,0,0,1,3.712-1.885,4.2,4.2,0,0,1,1.1.1,4.326,4.326,0,0,1,3.107,3.166c.013.052.026.11.045.169a6.992,6.992,0,0,1,.078,2.594L213.577,91.8c.046-.026,2.62-1.339,3.27-3.6a4.156,4.156,0,0,0,.117-.565A4.631,4.631,0,0,0,216.222,84.641Zm-42.276,24.941a.324.324,0,0,1,.449-.091,5.39,5.39,0,0,0,2.483.715c2.067.072,3.75-3.653,3.77-3.692a.326.326,0,0,1,.6.26c-.078.169-1.82,4.082-4.3,4.082h-.091a5.863,5.863,0,0,1-2.808-.826A.319.319,0,0,1,173.946,109.582Z" transform="translate(-121.14 -80.79)" fill="#fff"/>
          <path id="Path_2884" data-name="Path 2884" d="M253.807,90.752c-.085.059-.6.371-1.475.878-5.252,3.081-23.225,13.416-33.345,19.227l-.4.228c.176-.423.319-.826.436-1.209,1.9-1.138,29.192-17.394,29.7-17.7.39-.24,2.659-2.327,2.684-4.817a3.816,3.816,0,0,0-.149-1.131c1.807-1.105,3.926-1.989,4.212-1.534C256.5,86.319,257.116,88.308,253.807,90.752Z" transform="translate(-154.337 -81.09)" fill="#fff"/>
          <path id="Path_2885" data-name="Path 2885" d="M248.288,95.89c-.267.865-2.054,2.139-3.666,3.023h-.007c-.189.1-.364.195-.546.286l-2.594,1.5-.019.013-4.745,2.743h-.007L213.3,116.963a.326.326,0,0,0-.143.39.694.694,0,0,0,.462.455,1.316,1.316,0,0,0,1.02-.3l21.275-12.279,1.339-.774c-.312.748-1.879,1.885-3.094,2.555L202.45,127.4c1.281-1.384,2.912-3,5.044-4.934a33.319,33.319,0,0,0,2.34-2.509c.442-.526.839-1.04,1.189-1.534.026-.039.046-.072.072-.1a17.646,17.646,0,0,0,1.579-2.685.735.735,0,0,0,.559.39.868.868,0,0,0,.663-.273l31.746-18.33Z" transform="translate(-148.688 -85.051)" fill="#fff"/>
        </g>
        <path id="Path_2886" data-name="Path 2886" d="M208.251,118.945c-.078.169-1.82,4.082-4.3,4.082h-.091a5.863,5.863,0,0,1-2.808-.826.319.319,0,0,1-.1-.448.324.324,0,0,1,.449-.091,5.389,5.389,0,0,0,2.483.715c2.067.072,3.75-3.653,3.77-3.692a.326.326,0,0,1,.6.26Z" transform="translate(-148.145 -92.961)" fill="#1e22aa"/>
      </g>
    </g>
  </g>
  <g id="Mask_Group_60" data-name="Mask Group 60" clip-path="url(#clip-path-2)">
    <g id="Group_2229" data-name="Group 2229" transform="translate(-6.934 54.492)">
      <g id="Group_2225" data-name="Group 2225" transform="translate(23.439 2.955)">
        <path id="Path_2887" data-name="Path 2887" d="M146.458,209.415l-.208-.013c.052-.026.1-.046.156-.072Z" transform="translate(-146.25 -208.251)" fill="#fff"/>
        <path id="Path_2888" data-name="Path 2888" d="M150.918,207.683q-.254.039-.487.078c.085-.033.169-.059.26-.091Z" transform="translate(-147.713 -207.67)" fill="#fff"/>
        <path id="Path_2889" data-name="Path 2889" d="M146.406,208.749c-.052.026-.1.045-.156.072l.208.013Zm2.821-1.079c-.091.033-.176.059-.26.091q.234-.039.487-.078Z" transform="translate(-146.25 -207.67)" fill="#1e22aa"/>
      </g>
      <g id="_Hand_Down_Thick_ThinLines" data-name="* Hand_Down_Thick+ThinLines" transform="translate(0 0)">
        <g id="Group_2226" data-name="Group 2226" transform="translate(23.439 2.955)">
          <path id="Path_2890" data-name="Path 2890" d="M174.205,215.4l-.065.026c.013.006.02.013.033.013a1,1,0,0,0,.124.052Zm5.681,21.164c-.007.007-.007.013-.013.02a.327.327,0,0,0,.078.013Z" transform="translate(-156.011 -210.376)" fill="#fff"/>
          <path id="Path_2891" data-name="Path 2891" d="M164.444,212.695l-.065.026c.013.007.02.013.033.013a1,1,0,0,0,.124.052Zm0,0-.033.039a1,1,0,0,0,.124.052Zm0,0-.033.039a1,1,0,0,0,.124.052Zm0,0-.033.039a1,1,0,0,0,.124.052Zm0,0-.033.039a1,1,0,0,0,.124.052Zm0,0-.033.039a1,1,0,0,0,.124.052Zm0,0-.033.039a1,1,0,0,0,.124.052Zm0,0-.033.039a1,1,0,0,0,.124.052Zm0,0-.033.039a1,1,0,0,0,.124.052Zm5.681,21.164c-.007.006-.007.013-.013.02a.326.326,0,0,0,.078.013Zm-23.719-25.11c-.052.026-.1.045-.156.072l.208.013Zm2.821-1.079c-.091.033-.176.059-.26.091q.234-.039.487-.078Zm15.217,5.025-.033.039a1,1,0,0,0,.124.052Zm0,0-.033.039a1,1,0,0,0,.124.052Zm0,0-.033.039a1,1,0,0,0,.124.052Zm0,0-.033.039a1,1,0,0,0,.124.052Zm0,0-.033.039a1,1,0,0,0,.124.052Zm0,0-.033.039a1,1,0,0,0,.124.052Zm0,0-.033.039a1,1,0,0,0,.124.052Zm0,0-.033.039a1,1,0,0,0,.124.052Zm0,0-.033.039a1,1,0,0,0,.124.052Zm0,0-.065.026c.013.007.02.013.033.013a1,1,0,0,0,.124.052Z" transform="translate(-146.25 -207.67)" fill="#1e22aa"/>
        </g>
        <g id="Group_2227" data-name="Group 2227">
          <path id="Path_2892" data-name="Path 2892" d="M146.406,208.749c-.052.026-.1.045-.156.072l.208.013Zm2.821-1.079c-.091.033-.176.059-.26.091q.234-.039.487-.078Zm15.217,5.025-.065.026c.013.007.02.013.033.013a1,1,0,0,0,.124.052Zm5.681,21.164c-.007.006-.007.013-.013.02a.326.326,0,0,0,.078.013Z" transform="translate(-122.811 -204.715)" fill="#fff"/>
          <path id="Path_2893" data-name="Path 2893" d="M248.958,271.137c-.891,1.709-2.308,3.23-6.084,1.592-.091-.045-.624-.338-1.5-.839-5.3-3.023-23.231-13.41-33.313-19.266l-.41-.234a11,11,0,0,0,1.274-.221c1.521.845,29.666,16.582,30.18,16.868.4.215,3.354,1.138,5.519-.084a3.923,3.923,0,0,0,.9-.7C247.385,269.272,249.2,270.663,248.958,271.137Z" transform="translate(-144.301 -220.29)" fill="#fff"/>
          <path id="Path_2894" data-name="Path 2894" d="M233.319,271.969c-.878.2-2.867-.708-4.44-1.664-.189-.11-.364-.221-.533-.331l-2.6-1.5-4.764-2.749-23.4-13.514a.322.322,0,0,0-.416.071.689.689,0,0,0-.162.618c.117.461.7.715.773.741l21.275,12.285,1.332.767c-.812.1-2.574-.682-3.757-1.4L183.08,248.01c1.846.416,4.069,1.027,6.832,1.917a33.145,33.145,0,0,0,3.335.767c.683.124,1.326.208,1.937.266a.888.888,0,0,0,.124.013c.637.059,1.228.084,1.781.084q.7,0,1.326-.058a.75.75,0,0,0-.052.676.858.858,0,0,0,.572.436l31.746,18.33Z" transform="translate(-135.701 -218.834)" fill="#fff"/>
          <path id="Path_2895" data-name="Path 2895" d="M183.038,247.993a.326.326,0,0,1-.078-.013c.007-.007.007-.013.013-.02Z" transform="translate(-135.659 -218.817)" fill="#1e22aa"/>
          <path id="Path_2896" data-name="Path 2896" d="M214.509,249.519a4.512,4.512,0,0,0,.13-2.854c-.6-2.054-2.581-3.367-4.466-4.394-8.834-4.68-17.167-11.557-23.257-16.575-3.8-3.133-6.533-5.4-8.437-6.389-3.517-1.879-21.346-11.479-21.346-11.479-.033-.02-.072-.039-.11-.059-.975-.468-9.7-4.563-15.028-4.641a29.941,29.941,0,0,0-9.25,1.229,2.611,2.611,0,0,0-.455.2l-20.729-1.086a1.311,1.311,0,0,0-1.372,1.3v20.384a1.288,1.288,0,0,0,.41.942,1.27,1.27,0,0,0,.891.358h.072l20.937-1.092c6.123,7.592,10.9,7.787,14.749,7.937l.169.007c.637.026,1.254.026,1.885.033a33.444,33.444,0,0,1,4.355.234L189.7,252.145c3.075,1.846,5.057,2,6.318,1.56l5.3,3.055c2.769,1.807,4.784,2.451,6.247,2.451a3.785,3.785,0,0,0,1.7-.364c4.524,1.28,6.936-1.125,8.184-3.523C218.721,252.86,216.485,250.8,214.509,249.519Zm-61.692-19.3c-.117-.013-.234-.026-.351-.032h-.007c-.163-.013-.325-.026-.481-.033-.981-.059-1.833-.059-2.659-.065-.6-.007-1.176-.007-1.774-.033-.247-.007-.527-.026-.832-.059a22.752,22.752,0,0,1-9.107-2.958,14.721,14.721,0,0,1-2.411-1.813,11.214,11.214,0,0,1-1.17-1.248,9.433,9.433,0,0,1-.9-1.255,9.2,9.2,0,0,1-.546-.995,11.272,11.272,0,0,1-.773-2.125l-.631.156-.631.163a11.857,11.857,0,0,0,1.125,2.879l-18.876.988V206.144l18.194.949a2.771,2.771,0,0,0,.117.54.451.451,0,0,0,.033.085c-.351.2-.553.312-.559.318a.327.327,0,1,0,.338.559.47.47,0,0,1,.046-.026c.078-.046.234-.137.474-.267.468-.253,1.229-.65,2.2-1.072.052-.026.1-.046.156-.071.747-.325,1.612-.67,2.548-.988h.013c.085-.033.169-.059.26-.091a23.653,23.653,0,0,1,3.094-.78,11.62,11.62,0,0,1,4.628.5c1.118.292,2.295.682,3.445,1.1a82.843,82.843,0,0,1,7.976,3.5s17.836,9.607,21.353,11.486c1.658.865,4.433,3.159,7.956,6.064,6.182,5.1,14.651,12.084,23.745,16.907,1.833.994,2.8,1.833,3.029,2.633a1.726,1.726,0,0,1-.228,1.365,4.554,4.554,0,0,1-2.223,2.132,2.712,2.712,0,0,1-.546.188c-2.282.566-4.713-1.007-4.758-1.034L176.3,234.536a7,7,0,0,0,2.2-1.378c.046-.039.091-.085.13-.123a4.291,4.291,0,0,0,1.183-4.264,3.866,3.866,0,0,0-.462-1.014,5.356,5.356,0,0,0-3.49-2.268c-12.753-3.224-17.57-8.431-21.444-12.617-.318-.345-.637-.683-.949-1.014-.39-.416-.78-.826-1.176-1.215l-.461.461.091.091a1,1,0,0,1-.123-.052l-.423.422c.689.683,1.371,1.417,2.087,2.191,3.991,4.31,8.951,9.672,22.107,13a4.023,4.023,0,0,1,2.75,1.807,2.408,2.408,0,0,1,.253.578,2.988,2.988,0,0,1-.871,2.984,4.331,4.331,0,0,1-.4.364,6.5,6.5,0,0,1-2.516,1.183c-.241.065-.494.124-.754.169a13.807,13.807,0,0,1-2.769.188c-.078,0-.156,0-.234-.007a26.243,26.243,0,0,1-6.24-1.053c-.845-.273-1.638-.52-2.392-.741-1.781-.526-3.309-.923-4.647-1.222a39.444,39.444,0,0,0-4.037-.7C153.4,230.272,153.1,230.24,152.817,230.22ZM203.368,254.6c-.189-.11-.364-.221-.533-.331l-2.6-1.5-4.765-2.75L172.07,236.5a.322.322,0,0,0-.416.071.689.689,0,0,0-.162.618c.117.461.7.715.774.741l21.275,12.285,1.333.767c-.812.1-2.574-.682-3.757-1.4L157.569,232.3a.326.326,0,0,1-.078-.013c.007-.007.007-.013.013-.02l.065.033c1.846.416,4.069,1.027,6.832,1.917a33.14,33.14,0,0,0,3.335.767c.683.124,1.326.208,1.937.267a.888.888,0,0,0,.123.013c.637.059,1.229.085,1.781.085q.7,0,1.326-.059a.75.75,0,0,0-.052.676.858.858,0,0,0,.572.436l31.746,18.33,2.639,1.528C206.93,256.461,204.941,255.551,203.368,254.6Zm11.479-.624c-.891,1.71-2.308,3.23-6.084,1.592-.091-.045-.624-.338-1.5-.838-5.3-3.023-23.231-13.41-33.313-19.266l-.41-.234a11,11,0,0,0,1.274-.221c1.521.845,29.666,16.582,30.18,16.868.4.215,3.354,1.138,5.519-.085a3.921,3.921,0,0,0,.9-.7C213.274,252.106,215.094,253.5,214.847,253.971Z" transform="translate(-110.19 -203.125)" fill="#1e22aa"/>
          <path id="Path_2897" data-name="Path 2897" d="M213.231,248.619c-.234-.8-1.2-1.638-3.029-2.633-9.094-4.823-17.563-11.811-23.745-16.907-3.523-2.906-6.3-5.2-7.956-6.065-3.517-1.879-21.353-11.486-21.353-11.486a82.839,82.839,0,0,0-7.976-3.5c-1.15-.416-2.327-.806-3.445-1.1a11.621,11.621,0,0,0-4.628-.5,23.654,23.654,0,0,0-3.094.78l.227.013q-.253.039-.487.078h-.013c-.936.318-1.8.663-2.548.988l.052.085-.208-.013c-.969.422-1.729.819-2.2,1.072-.24.13-.4.221-.474.266a.47.47,0,0,0-.046.026.327.327,0,1,1-.338-.559c.006-.007.208-.124.559-.319a.451.451,0,0,1-.033-.085,2.773,2.773,0,0,1-.117-.539l-18.194-.949V224.92l18.876-.988a11.857,11.857,0,0,1-1.125-2.879l.631-.163.631-.156a11.272,11.272,0,0,0,.773,2.126,9.2,9.2,0,0,0,.546.994,9.43,9.43,0,0,0,.9,1.255,11.214,11.214,0,0,0,1.17,1.248,14.721,14.721,0,0,0,2.411,1.813,22.751,22.751,0,0,0,9.107,2.958c.305.033.585.052.832.059.6.026,1.176.026,1.775.033.826.007,1.677.007,2.658.065.156.007.319.02.481.033h.007c.117.007.234.02.351.033.286.02.578.052.884.085a39.434,39.434,0,0,1,4.036.7c1.339.3,2.867.7,4.648,1.222.754.221,1.547.468,2.392.741a26.245,26.245,0,0,0,6.24,1.053c.078.006.156.006.234.006a13.8,13.8,0,0,0,2.769-.188c.26-.046.514-.1.754-.169a6.5,6.5,0,0,0,2.515-1.183,4.324,4.324,0,0,0,.4-.364,2.988,2.988,0,0,0,.871-2.984,2.408,2.408,0,0,0-.254-.578,4.023,4.023,0,0,0-2.75-1.807c-13.156-3.328-18.116-8.691-22.107-13-.715-.774-1.4-1.508-2.087-2.191l.423-.422c-.013,0-.02-.007-.033-.013l.065-.026.462-.461c.4.39.786.8,1.176,1.215.312.332.631.669.949,1.014,3.874,4.186,8.691,9.393,21.444,12.617a5.356,5.356,0,0,1,3.491,2.268,3.866,3.866,0,0,1,.462,1.014,4.291,4.291,0,0,1-1.183,4.264c-.039.039-.085.085-.13.123a7,7,0,0,1-2.2,1.378l27.781,15.607c.046.026,2.477,1.6,4.758,1.034a2.714,2.714,0,0,0,.546-.189A4.554,4.554,0,0,0,213,249.984,1.726,1.726,0,0,0,213.231,248.619Zm-43.31-22.471a.34.34,0,0,1,.344-.306.325.325,0,0,1,.305.338,5.441,5.441,0,0,0,.618,2.509c.975,1.853,5.044,1.423,5.09,1.423a.314.314,0,0,1,.357.286.327.327,0,0,1-.286.357,10.75,10.75,0,0,1-1.1.052c-1.424,0-3.809-.247-4.635-1.813A6.02,6.02,0,0,1,169.921,226.148Z" transform="translate(-111.59 -204.253)" fill="#fff"/>
        </g>
        <g id="Thumb-2" data-name="Thumb" transform="translate(41.568 7.979)">
          <g id="Group_2228" data-name="Group 2228">
            <path id="Path_2898" data-name="Path 2898" d="M174.3,215.491a1,1,0,0,1-.124-.052c-.013,0-.02-.007-.033-.013l.065-.026Z" transform="translate(-174.14 -215.4)" fill="#fff"/>
            <path id="Path_2899" data-name="Path 2899" d="M183.038,247.993a.326.326,0,0,1-.078-.013c.007-.007.007-.013.013-.02Z" transform="translate(-177.227 -226.796)" fill="#1e22aa"/>
            <path id="Path_2900" data-name="Path 2900" d="M174.314,215.491a1,1,0,0,1-.123-.052l.033-.039Z" transform="translate(-174.158 -215.4)" fill="#1e22aa"/>
          </g>
          <path id="Path_2901" data-name="Path 2901" d="M206.644,240.9a.327.327,0,0,1-.286.357,10.756,10.756,0,0,1-1.1.052c-1.423,0-3.809-.247-4.635-1.813a6.02,6.02,0,0,1-.7-2.847.34.34,0,0,1,.345-.305.325.325,0,0,1,.305.338,5.441,5.441,0,0,0,.618,2.509c.975,1.852,5.044,1.423,5.09,1.423A.314.314,0,0,1,206.644,240.9Z" transform="translate(-183.166 -222.729)" fill="#1e22aa"/>
        </g>
      </g>
    </g>
  </g>
</svg>
