<svg id="Component_174_7" data-name="Component 174 – 7" xmlns="http://www.w3.org/2000/svg" xmlns:xlink="http://www.w3.org/1999/xlink" width="130" height="130" viewBox="0 0 130 130">
  <defs>
    <clipPath id="clip-path">
      <circle id="Ellipse_450" data-name="Ellipse 450" cx="65" cy="65" r="65" transform="translate(0)" fill="#cbecf1" stroke="#66c9d7" stroke-width="6"/>
    </clipPath>
    <clipPath id="clip-path-2">
      <circle id="Ellipse_449" data-name="Ellipse 449" cx="65" cy="65" r="65" fill="#cbecf1" stroke="#66c9d7" stroke-width="6"/>
    </clipPath>
  </defs>
  <g id="Mask_Group_58" data-name="Mask Group 58" opacity="0.497" clip-path="url(#clip-path)">
    <g id="Group_2218" data-name="Group 2218" transform="translate(-3.25 29.792)">
      <g id="Group_2216" data-name="Group 2216" transform="translate(0 0)">
        <path id="Path_2867" data-name="Path 2867" d="M202.871,833.248a7.458,7.458,0,0,0,4.934-1.781,5.414,5.414,0,0,0,1.586-4.056,4.934,4.934,0,0,0-1.43-3.607,7.456,7.456,0,0,0-4.94-1.781H163.988c.085-.072.176-.136.267-.2l33.534-2.932c2.23-.234,6.331-1.943,5.915-6.7a5.851,5.851,0,0,0-2.028-4.166,7.455,7.455,0,0,0-4.992-1.482l-35.952,3.146-4.622.442q2.252-1.589,4.823-3.068c.033-.02.065-.046.1-.065a10.84,10.84,0,0,0,4.992-9.614,5.406,5.406,0,0,0-2.769-4.641,4.135,4.135,0,0,0-4.219.592c-15.041,10.621-19.578,11.778-23.582,12.792a32.118,32.118,0,0,0-5.558,1.839,30.075,30.075,0,0,0-9.276,6.572H94.73a1.3,1.3,0,0,0-1.3,1.3v31.434a1.3,1.3,0,0,0,1.3,1.3h27.248a25.567,25.567,0,0,0,13.007,4.355l49.036,4.121c.1.007.208.007.318.007,2.041,0,5.519-.9,5.889-4.427a5.1,5.1,0,0,0-1.112-4.017A6.213,6.213,0,0,0,185,846.7l-21.561-2.262c-.065-.071-.13-.143-.182-.208l33.631,1.762a7.867,7.867,0,0,0,5.551-1.372,5.206,5.206,0,0,0,1.82-3.867,4.767,4.767,0,0,0-1.281-3.633c-1.846-1.931-4.979-2.022-5.512-2.022l-33.917-1.781-.039-.059v-.006Zm-40.768,2.32a1.292,1.292,0,0,0,.78.312l34.489,1.807a.218.218,0,0,0,.065.007h.033a5.8,5.8,0,0,1,3.633,1.215,2.131,2.131,0,0,1,.559,1.7,2.617,2.617,0,0,1-.871,2,5.352,5.352,0,0,1-3.614.793c-.033,0-.072-.006-.1-.006l-34.489-1.807a1.239,1.239,0,0,0-.793.221,2.937,2.937,0,0,0-1.339,2.242,4.013,4.013,0,0,0,1.541,2.6,1.259,1.259,0,0,0,.728.318l22.048,2.321a.293.293,0,0,1,.072.006,3.672,3.672,0,0,1,2.314,1.027,2.563,2.563,0,0,1,.488,2.034c-.234,2.2-3.367,2.106-3.445,2.1l-49.03-4.121a.339.339,0,0,0-.085-.007,24.265,24.265,0,0,1-7.7-1.755,20.856,20.856,0,0,1-2.62-1.3,17.094,17.094,0,0,1-1.911-1.3,15.562,15.562,0,0,1-2.314-2.229,1.335,1.335,0,0,0-.429-.338,1.3,1.3,0,0,0-1.56,2.008c.163.189.325.377.494.559H96.03V817.141h22.36a23.986,23.986,0,0,0-1.606,2.36,1.3,1.3,0,0,0,1.853,1.735,1.318,1.318,0,0,0,.377-.4,24.173,24.173,0,0,1,2.75-3.692c.4-.442.813-.878,1.241-1.3.455-.455.93-.884,1.417-1.3a26.887,26.887,0,0,1,6.533-4.193,29.083,29.083,0,0,1,5.142-1.7c4.219-1.073,9-2.294,24.44-13.189a1.618,1.618,0,0,1,1.625-.357,3.033,3.033,0,0,1,1.274,2.516c.182,2.041-.735,5.012-3.855,7.215a61.393,61.393,0,0,0-8.4,5.772c-.566.468-1.131.956-1.677,1.463-.507.468-1.007.949-1.482,1.45-.332.332-.644.676-.949,1.021-.377.422-.741.858-1.079,1.3s-.65.858-.942,1.3c-.007.006-.013.02-.02.026-.4.585-.832,1.281-1.313,2.048-3.178,5.063-8.5,13.527-15.945,14.151a1.21,1.21,0,0,0-.624.227,1.263,1.263,0,0,0-.559,1.177,1.3,1.3,0,0,0,1.293,1.189h.111c8.743-.734,14.489-9.886,17.927-15.359.468-.748.891-1.424,1.274-2,.319-.481.683-.969,1.079-1.463.351-.429.728-.865,1.131-1.3s.832-.871,1.287-1.3c.494-.481,1.014-.956,1.566-1.43l8.71-.832,35.952-3.139a4.771,4.771,0,0,1,3.094.884,3.328,3.328,0,0,1,1.105,2.4c.292,3.334-3.2,3.835-3.575,3.88l-33.826,2.958a1.32,1.32,0,0,0-.54.176c-.942.546-2.061,1.437-2.061,2.561a3.365,3.365,0,0,0,1.365,2.334,1.289,1.289,0,0,0,.819.292H203.04a5,5,0,0,1,3.1,1.04,2.319,2.319,0,0,1,.65,1.748,2.885,2.885,0,0,1-.786,2.184,4.876,4.876,0,0,1-3.094,1.053H162.857a1.314,1.314,0,0,0-.929.39,3.558,3.558,0,0,0-1.034,2.242A3.32,3.32,0,0,0,162.1,835.568Z" transform="translate(-93.43 -792.404)" fill="#1e22aa"/>
      </g>
      <g id="Group_2217" data-name="Group 2217" transform="translate(2.6 2.602)">
        <path id="Path_2868" data-name="Path 2868" d="M208.19,828.811A2.885,2.885,0,0,1,207.4,831a4.876,4.876,0,0,1-3.094,1.053H164.257a1.314,1.314,0,0,0-.929.39,3.558,3.558,0,0,0-1.034,2.242,3.32,3.32,0,0,0,1.209,2.288,1.292,1.292,0,0,0,.78.312l34.489,1.807a.22.22,0,0,0,.065.007h.033a5.8,5.8,0,0,1,3.633,1.216,2.131,2.131,0,0,1,.559,1.7,2.617,2.617,0,0,1-.871,2,5.353,5.353,0,0,1-3.614.793c-.033,0-.072-.007-.1-.007l-34.489-1.807a1.239,1.239,0,0,0-.793.221,2.937,2.937,0,0,0-1.339,2.242,4.013,4.013,0,0,0,1.54,2.6,1.259,1.259,0,0,0,.728.318l22.048,2.321a.293.293,0,0,1,.071.006,3.672,3.672,0,0,1,2.314,1.027,2.563,2.563,0,0,1,.488,2.035c-.234,2.2-3.367,2.106-3.445,2.1l-49.03-4.121a.339.339,0,0,0-.085-.007,24.263,24.263,0,0,1-7.7-1.755,20.855,20.855,0,0,1-2.62-1.3,17.1,17.1,0,0,1-1.911-1.3,15.558,15.558,0,0,1-2.314-2.229,1.336,1.336,0,0,0-.429-.338,1.3,1.3,0,0,0-1.56,2.009c.163.188.325.377.494.559H97.43V818.541h22.36a23.976,23.976,0,0,0-1.605,2.36,1.3,1.3,0,0,0,1.853,1.735,1.317,1.317,0,0,0,.377-.4,24.175,24.175,0,0,1,2.75-3.692c.4-.442.813-.878,1.242-1.3.455-.455.93-.884,1.417-1.3a26.888,26.888,0,0,1,6.533-4.193,29.083,29.083,0,0,1,5.142-1.7c4.219-1.073,9-2.294,24.44-13.189a1.618,1.618,0,0,1,1.625-.358,3.033,3.033,0,0,1,1.274,2.516c.182,2.041-.735,5.012-3.855,7.215a61.387,61.387,0,0,0-8.4,5.772c-.566.468-1.131.956-1.677,1.463-.507.468-1.007.949-1.482,1.449-.332.332-.644.676-.949,1.021-.377.422-.741.858-1.079,1.3s-.65.858-.942,1.3c-.007.006-.013.019-.02.026-.4.585-.832,1.28-1.313,2.048-3.178,5.063-8.5,13.526-15.945,14.151a1.21,1.21,0,0,0-.624.227,1.263,1.263,0,0,0-.559,1.177,1.3,1.3,0,0,0,1.293,1.189h.111c8.743-.734,14.489-9.886,17.927-15.359.468-.748.891-1.424,1.274-2,.318-.481.682-.969,1.079-1.463.351-.429.728-.865,1.131-1.3s.832-.871,1.287-1.3c.494-.481,1.014-.956,1.566-1.43l8.71-.832,35.952-3.14a4.772,4.772,0,0,1,3.094.884,3.328,3.328,0,0,1,1.105,2.4c.292,3.335-3.2,3.835-3.575,3.881l-33.826,2.957a1.321,1.321,0,0,0-.54.176c-.942.546-2.061,1.437-2.061,2.561a3.365,3.365,0,0,0,1.365,2.333,1.289,1.289,0,0,0,.819.292H204.44a5,5,0,0,1,3.1,1.04A2.319,2.319,0,0,1,208.19,828.811Z" transform="translate(-97.43 -796.407)" fill="#fff"/>
      </g>
    </g>
  </g>
  <g id="Mask_Group_57" data-name="Mask Group 57" clip-path="url(#clip-path-2)">
    <g id="Group_2215" data-name="Group 2215" transform="translate(-4.332 42.25)">
      <g id="Group_2209" data-name="Group 2209" transform="translate(2.6 2.59)">
        <path id="Path_2858" data-name="Path 2858" d="M144.143,694.217c.182-1.176.24-1.969.253-2.106a1.3,1.3,0,0,0-2.581-.325c-.02.1-.156.884-.254,2.067-.611,3.874-2.652,12.272-8.853,12.792a1.21,1.21,0,0,0-.624.228,1.3,1.3,0,0,0,.734,2.366.672.672,0,0,0,.111-.006c4.674-.39,7.456-3.848,9.107-7.553a12.8,12.8,0,0,0,1.755,4.121,5.948,5.948,0,0,0,7.267,2.594,5.414,5.414,0,0,0-1.378,3.614v.189a5.458,5.458,0,0,0,2.535,4.6,4.976,4.976,0,0,0-1.794,2.45,4.754,4.754,0,0,0-.253,1.3c-.007.091-.007.182-.007.279v.754c0,.091,0,.182.007.266a4.956,4.956,0,0,0,.468,1.84l-10.608-.078a24.646,24.646,0,0,1-7.716-1.762,20.268,20.268,0,0,1-2.607-1.3,16.2,16.2,0,0,1-1.9-1.3,15.011,15.011,0,0,1-2.4-2.327,1.2,1.2,0,0,0-.429-.338,1.3,1.3,0,0,0-1.58,2c.189.227.383.455.579.669h-23V690.415h22.347a26.33,26.33,0,0,0-1.592,2.359,1.3,1.3,0,0,0,1.859,1.742,1.38,1.38,0,0,0,.371-.4,24.338,24.338,0,0,1,2.736-3.7c.39-.449.806-.884,1.235-1.3.449-.455.917-.891,1.4-1.3a25.23,25.23,0,0,1,6.559-4.186c7.722-3.309,12.636-4.264,14.612-2.827,1.092.793,1.4,2.522,1.4,4.68,0,.416-.013.852-.039,1.3q-.02.507-.059,1.033c-.007.091-.013.176-.02.267-.02.214-.033.429-.052.643-.013.13-.02.26-.033.39-.033.364-.065.734-.1,1.1l-.02.2c-.091,1.059-.189,2.145-.254,3.25a36.08,36.08,0,0,0-.046,3.932c.026.552.065,1.1.13,1.651v.006a17.421,17.421,0,0,0,.357,2.015,13.253,13.253,0,0,0,.767,2.333,1.043,1.043,0,0,1-.214.656,3.812,3.812,0,0,1-.884.982,4.6,4.6,0,0,1-.767.5,3.8,3.8,0,0,1-.364.169c-1.1.448-2.86.65-4.355-1.56C143.935,701.361,143.942,696.8,144.143,694.217Z" transform="translate(-100.97 -680.153)" fill="#fff"/>
      </g>
      <g id="Group_2210" data-name="Group 2210" transform="translate(78.098 24.214)">
        <path id="Path_2859" data-name="Path 2859" d="M217.3,713.784v.182A3.031,3.031,0,0,1,217.12,715a5.125,5.125,0,0,0,.169-1.365c0-.071,0-.143-.007-.214A3.32,3.32,0,0,1,217.3,713.784Z" transform="translate(-217.12 -713.42)" fill="#1e22aa"/>
      </g>
      <g id="Group_2211" data-name="Group 2211" transform="translate(54.392 40.886)">
        <path id="Path_2860" data-name="Path 2860" d="M200.157,741.449v.754a2.377,2.377,0,0,1-2.372,2.372H183.023a2.366,2.366,0,0,1-2.353-2.106,1.775,1.775,0,0,1-.02-.266v-.754a1.955,1.955,0,0,1,.02-.28,2.368,2.368,0,0,1,2.353-2.1h14.762A2.379,2.379,0,0,1,200.157,741.449Z" transform="translate(-180.65 -739.07)" fill="#fff"/>
      </g>
      <g id="Group_2212" data-name="Group 2212" transform="translate(0 0)">
        <path id="Path_2861" data-name="Path 2861" d="M174.7,695.63a6.165,6.165,0,0,0-3.016-11.544h-18.6c.007-2.906-.507-5.369-2.47-6.786-2.88-2.093-8.171-1.306-17.16,2.548a28.789,28.789,0,0,0-9.321,6.571H98.27a1.3,1.3,0,0,0-1.3,1.3v31.434a1.3,1.3,0,0,0,1.3,1.3h27.242a25.627,25.627,0,0,0,13.078,4.362l13.618.1a4.943,4.943,0,0,0,1.527.24H168.5a4.977,4.977,0,0,0,4.973-4.972v-.754a4.954,4.954,0,0,0-1.255-3.3,5.461,5.461,0,0,0,3.738-2.854,5.559,5.559,0,0,0,.709-2.821,4.742,4.742,0,0,0-1.469-3.562,4.221,4.221,0,0,0-.78-.6.613.613,0,0,0-.117-.078h.013a5.738,5.738,0,0,0,3.543-5.291v-.182A5.734,5.734,0,0,0,174.7,695.63Zm-21.918-6.578v-.032c.026-.28.052-.566.078-.845a2.844,2.844,0,0,1,.383-.455,3.526,3.526,0,0,1,2.509-1.033h15.932a3.56,3.56,0,0,1,2.756,5.824.006.006,0,0,1-.007.006,3.553,3.553,0,0,1-2.75,1.3H155.75a3.443,3.443,0,0,1-1.189-.208,3.55,3.55,0,0,1-2-1.768C152.617,690.9,152.7,689.962,152.779,689.052Zm-3.757,28.8a4.756,4.756,0,0,0-.253,1.3c-.007.091-.007.182-.007.279v.754c0,.091,0,.182.007.266a4.956,4.956,0,0,0,.468,1.839l-10.608-.078a24.647,24.647,0,0,1-7.715-1.762,20.267,20.267,0,0,1-2.607-1.3,16.193,16.193,0,0,1-1.9-1.3A15.011,15.011,0,0,1,124,715.527a1.194,1.194,0,0,0-.429-.338,1.3,1.3,0,0,0-1.579,2c.188.227.383.455.578.669h-23V689.02h22.347a26.328,26.328,0,0,0-1.593,2.359,1.3,1.3,0,0,0,1.859,1.742,1.38,1.38,0,0,0,.37-.4,24.345,24.345,0,0,1,2.737-3.7c.39-.449.806-.884,1.235-1.3.449-.455.917-.891,1.4-1.3a25.23,25.23,0,0,1,6.559-4.186c7.722-3.309,12.636-4.264,14.612-2.827,1.092.793,1.4,2.522,1.4,4.68,0,.416-.013.852-.039,1.3q-.02.507-.059,1.033c-.007.091-.013.176-.02.267-.02.214-.033.429-.052.643-.013.13-.02.26-.033.39-.033.364-.065.734-.1,1.1l-.019.2c-.091,1.059-.189,2.145-.254,3.25a36.08,36.08,0,0,0-.046,3.932c.026.552.065,1.1.13,1.651v.006a17.418,17.418,0,0,0,.357,2.015,13.255,13.255,0,0,0,.767,2.333,1.043,1.043,0,0,1-.215.656,3.813,3.813,0,0,1-.884.982,4.6,4.6,0,0,1-.767.5,3.8,3.8,0,0,1-.364.169c-1.105.448-2.86.65-4.355-1.56-2.009-2.99-2-7.547-1.8-10.133.182-1.177.24-1.969.253-2.106a1.3,1.3,0,0,0-2.581-.325c-.02.1-.156.884-.254,2.067-.611,3.874-2.652,12.272-8.853,12.792a1.21,1.21,0,0,0-.624.228,1.3,1.3,0,0,0,.734,2.366.672.672,0,0,0,.111-.006c4.674-.39,7.456-3.848,9.107-7.553a12.8,12.8,0,0,0,1.755,4.121A5.948,5.948,0,0,0,149.659,707a5.414,5.414,0,0,0-1.378,3.614v.189a5.458,5.458,0,0,0,2.535,4.6A4.977,4.977,0,0,0,149.022,717.854Zm21.847,2.334a2.377,2.377,0,0,1-2.372,2.372H153.735a2.366,2.366,0,0,1-2.353-2.106,1.775,1.775,0,0,1-.019-.266v-.754a1.954,1.954,0,0,1,.019-.279,2.367,2.367,0,0,1,2.353-2.1H168.5a2.379,2.379,0,0,1,2.372,2.379Zm3.081-9.386a2.748,2.748,0,0,1-.318,1.3,2.844,2.844,0,0,1-2.529,1.547H153.728a2.85,2.85,0,0,1-2.847-2.847v-.189a2.845,2.845,0,0,1,2.847-2.841H171.1a2.857,2.857,0,0,1,1.807.65,2.816,2.816,0,0,1,1.04,2.19Zm1.3-9.874a3.031,3.031,0,0,1-.182,1.033,3.117,3.117,0,0,1-2.938,2.087H153.351a.791.791,0,0,1-.124-.006,3.218,3.218,0,0,0,.279-2.873,12.594,12.594,0,0,1-.9-3.452,2.792,2.792,0,0,1,.741-.1H172.13a3.133,3.133,0,0,1,3.1,2.763,3.317,3.317,0,0,1,.02.364Z" transform="translate(-96.97 -676.168)" fill="#1e22aa"/>
        <path id="Path_2862" data-name="Path 2862" d="M215.943,722.4h-.013a.607.607,0,0,1,.117.078A.54.54,0,0,0,215.943,722.4Z" transform="translate(-138.606 -692.349)" fill="#1e22aa"/>
        <path id="Path_2863" data-name="Path 2863" d="M202.979,727.631v.189a2.748,2.748,0,0,1-.319,1.3,2.844,2.844,0,0,1-2.528,1.547H182.757a2.85,2.85,0,0,1-2.847-2.847v-.189a2.845,2.845,0,0,1,2.847-2.841h17.375a2.857,2.857,0,0,1,1.807.65A2.816,2.816,0,0,1,202.979,727.631Z" transform="translate(-125.999 -693.186)" fill="#fff"/>
      </g>
      <g id="Group_2213" data-name="Group 2213" transform="translate(55.64 21.451)">
        <path id="Path_2864" data-name="Path 2864" d="M205.2,712.147a5.126,5.126,0,0,1-.169,1.365,3.117,3.117,0,0,1-2.938,2.087H183.311a.783.783,0,0,1-.123-.007,3.218,3.218,0,0,0,.279-2.873,12.6,12.6,0,0,1-.9-3.451,2.789,2.789,0,0,1,.741-.1H202.09a3.133,3.133,0,0,1,3.1,2.762C205.2,712,205.2,712.076,205.2,712.147Z" transform="translate(-182.57 -709.17)" fill="#fff"/>
        <path id="Path_2865" data-name="Path 2865" d="M217.283,713.42c.007.072.007.143.007.214A5.125,5.125,0,0,1,217.12,715a3.031,3.031,0,0,0,.182-1.033v-.182A3.32,3.32,0,0,0,217.283,713.42Z" transform="translate(-194.662 -710.658)" fill="#fff"/>
      </g>
      <g id="Group_2214" data-name="Group 2214" transform="translate(55.588 10.518)">
        <path id="Path_2866" data-name="Path 2866" d="M205.182,695.919a3.521,3.521,0,0,1-.812,2.255.006.006,0,0,1-.007.006,3.553,3.553,0,0,1-2.749,1.3H185.682a3.442,3.442,0,0,1-1.189-.208,3.551,3.551,0,0,1-2-1.768c.059-.943.143-1.878.221-2.789v-.032c.026-.28.052-.566.078-.845a2.842,2.842,0,0,1,.383-.455,3.526,3.526,0,0,1,2.509-1.034h15.932a3.588,3.588,0,0,1,3.568,3.569Z" transform="translate(-182.49 -692.35)" fill="#fff"/>
      </g>
    </g>
  </g>
</svg>
