<svg id="Component_172_7" data-name="Component 172 – 7" xmlns="http://www.w3.org/2000/svg" xmlns:xlink="http://www.w3.org/1999/xlink" width="130" height="130" viewBox="0 0 130 130">
  <defs>
    <clipPath id="clip-path">
      <circle id="Ellipse_456" data-name="Ellipse 456" cx="65" cy="65" r="65" fill="#cbecf1"/>
    </clipPath>
    <clipPath id="clip-path-2">
      <circle id="Ellipse_458" data-name="Ellipse 458" cx="65" cy="65" r="65" transform="translate(0)" fill="#cbecf1" stroke="#66c9d7" stroke-width="6"/>
    </clipPath>
  </defs>
  <g id="Mask_Group_61" data-name="Mask Group 61" transform="translate(0)" opacity="0.498" clip-path="url(#clip-path)">
    <g id="Group_2235" data-name="Group 2235" transform="translate(-4.225 25.459)">
      <g id="Group_2230" data-name="Group 2230" transform="translate(0 0)">
        <path id="Path_2902" data-name="Path 2902" d="M269.387,411.626l-4.667.2,4.654-.228Z" transform="translate(-160.915 -390.644)" fill="#1e22aa"/>
        <path id="Path_2903" data-name="Path 2903" d="M216.073,399.959a3.763,3.763,0,0,0-1.359-2.353,10,10,0,0,0-6.6-1.885l-2.424.2c-7.638.631-18.1,1.5-31.135,1.84h-.013a35.766,35.766,0,0,1-4.336-1.086,52,52,0,0,0-6.286-1.553c-.436-.059-.982-.117-1.618-.182.624-.423,1.294-.858,2.021-1.313,4.368-2.73,6.734-7.807,6.507-11.141a3.114,3.114,0,0,0-1.69-2.9c-1.131-.507-2.477-.163-3.952.995-11.044,7.969-17.862,7.943-23.329,7.917-4.518-.019-8.424-.033-12.506,4.628a16.321,16.321,0,0,0-1.443,1.924l-21.522-1.118a1.3,1.3,0,0,0-1.365,1.3v20.384a1.293,1.293,0,0,0,.4.943,1.326,1.326,0,0,0,.9.358h.065l26.871-1.4c5.245,2.515,12.032,2.034,12.929,1.963l24.154.728h.039a1.717,1.717,0,0,0,.188-.013l25.766-3.8c5.558-.63,5.9-2.028,5.922-2.737a73.89,73.89,0,0,1,8.7-1c3.328-.221,5.525-.371,5.6-2.425a5.383,5.383,0,0,0-.019-.8c2.074.137,3.471.176,4.309-.643a1.868,1.868,0,0,0,.572-1.443C221.312,402.643,218.972,400.8,216.073,399.959Zm2.867,5.317c-.286.286-1.033.585-2.925.487-.013-.039-.026-.078-.046-.123a3.877,3.877,0,0,0-.461-.839c-.819-1.15-2.75-2.684-7.2-2.6-.429,0-.878.026-1.359.065l-32.507,2.223h-.663a.322.322,0,0,0-.325.325.94.94,0,0,0,.9,1l34.554-2.6a10.684,10.684,0,0,1,1.612-.039,5.69,5.69,0,0,1,3.465,1.164,2.815,2.815,0,0,1,.884,1.612c.02.1.033.208.046.312a4.714,4.714,0,0,1,.013.611c-.013.292-.37.507-1,.7a17.069,17.069,0,0,1-2.23.429c-.644.091-1.365.182-2.145.28-2.074.26-4.635.578-7.683,1.144a3.764,3.764,0,0,0-.1-.422,3.816,3.816,0,0,0-.995-1.651q-1.775-1.765-5.811-1.671l-20.631,1.95h-.995a.322.322,0,0,0-.325.325.763.763,0,0,0,.267.611,1.312,1.312,0,0,0,.969.221l20.878-1.95c.026,0,3.075-.293,4.622,1.085v.007a.358.358,0,0,1,.059.046,4.333,4.333,0,0,1,.793,1.345l-.039.026a3.363,3.363,0,0,1,.065.865c-.006.156-.383.357-1.014.565a18.587,18.587,0,0,1-3.478.7l-25.747,3.809-24.271-.728a31.249,31.249,0,0,1-6.344-.162c-.169-.02-.344-.046-.52-.072-.585-.085-1.183-.195-1.787-.332h-.013c-.364-.084-.735-.176-1.1-.279h-.013a16.9,16.9,0,0,1-2.353-.839h-.007c-.345-.156-.689-.319-1.021-.5a.006.006,0,0,1-.007-.006c-.046-.026-.1-.052-.143-.078s-.072-.039-.1-.059a10.083,10.083,0,0,1-2.873-2.392,8.787,8.787,0,0,1-1.391-2.437,10.789,10.789,0,0,1-.643-3.7v-.358a.32.32,0,0,0-.026-.136.313.313,0,0,0-.293-.2h-.006a.329.329,0,0,0-.325.318c-.007.364,0,.728.026,1.079a.009.009,0,0,0,0,.013,1.088,1.088,0,0,0-.085.325,10.183,10.183,0,0,0,2.7,8.34l-22.172,1.157V396.6l21.431,1.118-.046-.188a1.3,1.3,0,0,0,.793-.6c.091-.156.188-.312.286-.468a14.638,14.638,0,0,1,.9-1.254c.1-.13.215-.254.319-.377,3.3-3.764,6.175-3.757,10.537-3.738,5.544.033,13.13.059,24.9-8.437a3.1,3.1,0,0,1,1.307-.715,2.426,2.426,0,0,1,.156,1.553,11.611,11.611,0,0,1-5.265,7.917,55.577,55.577,0,0,0-4.667,3.217,93.573,93.573,0,0,0-10.946-.143,1.245,1.245,0,0,0-.89.455,1.084,1.084,0,0,0-.241.4.094.094,0,0,0,.013.046.324.324,0,0,0,.273.2c.481.039,1.079.091,1.755.156,2.113.2,5.025.487,7.794.773.592.065,1.183.13,1.755.195.624.065,1.235.13,1.814.189h.007c1.774.2,3.257.37,4.089.481a52.339,52.339,0,0,1,6.058,1.508,27.921,27.921,0,0,0,4.8,1.151h.039c13.091-.344,23.576-1.216,31.226-1.846l2.431-.2c1.573-.13,3.8.046,4.908.994a1.843,1.843,0,0,1,.624.988l-.539.026-4.433.221L175,402.331H174a.322.322,0,0,0-.325.325c0,.715.773.968,1.229,1l37.739-2.6c.474.013.968.046,1.456.1,2.5.28,4.947,1.176,5.038,3.6A.645.645,0,0,1,218.939,405.276Z" transform="translate(-105.02 -379.36)" fill="#1e22aa"/>
        <path id="Path_2904" data-name="Path 2904" d="M147.867,430.053c-.046-.026-.1-.052-.143-.078s-.072-.039-.1-.059a.092.092,0,0,1,.039-.013.12.12,0,0,1,.046-.013l.013.058C147.763,429.981,147.815,430.014,147.867,430.053Z" transform="translate(-119.93 -397.046)" fill="#fff"/>
      </g>
      <g id="Group_2231" data-name="Group 2231" transform="translate(27.69 15.587)">
        <path id="Path_2905" data-name="Path 2905" d="M147.92,430.084c-.046-.026-.1-.052-.143-.078l-.006-.026C147.816,430.013,147.868,430.045,147.92,430.084Z" transform="translate(-147.673 -412.664)" fill="#fff"/>
        <path id="Path_2906" data-name="Path 2906" d="M168.376,404l-.026.007a.123.123,0,0,1,.013-.052A.094.094,0,0,0,168.376,404Z" transform="translate(-154.875 -403.553)" fill="#fff"/>
        <path id="Path_2907" data-name="Path 2907" d="M168.6,403.34a1.085,1.085,0,0,0-.241.4.3.3,0,0,1-.013-.111A.312.312,0,0,1,168.6,403.34Z" transform="translate(-154.875 -403.34)" fill="#fff"/>
        <path id="Path_2908" data-name="Path 2908" d="M159.68,409.506l-.65.305a.641.641,0,0,1,.566-.312A.4.4,0,0,1,159.68,409.506Z" transform="translate(-151.613 -405.496)" fill="#fff"/>
        <path id="Path_2909" data-name="Path 2909" d="M147.867,430.053c-.046-.026-.1-.052-.143-.078s-.072-.039-.1-.059a.092.092,0,0,1,.039-.013.12.12,0,0,1,.046-.013l.013.058C147.763,429.981,147.815,430.014,147.867,430.053Z" transform="translate(-147.62 -412.633)" fill="#1e22aa"/>
      </g>
      <g id="Group_2232" data-name="Group 2232" transform="translate(27.69 15.983)">
        <path id="Path_2910" data-name="Path 2910" d="M269.387,411.626l-4.667.2,4.654-.228Z" transform="translate(-188.605 -406.628)" fill="#fff"/>
        <path id="Path_2911" data-name="Path 2911" d="M147.867,430.053c-.046-.026-.1-.052-.143-.078s-.072-.039-.1-.059a.092.092,0,0,1,.039-.013.12.12,0,0,1,.046-.013l.013.058C147.763,429.981,147.815,430.014,147.867,430.053Z" transform="translate(-147.62 -413.029)" fill="#fff"/>
        <path id="Path_2912" data-name="Path 2912" d="M208.137,423.249a.07.07,0,0,1-.006-.039,1.14,1.14,0,0,1,.032-.26A.662.662,0,0,1,208.137,423.249Z" transform="translate(-168.798 -410.6)" fill="#fff"/>
        <path id="Path_2913" data-name="Path 2913" d="M251.99,425.258l-.039.026a2.38,2.38,0,0,0-.11-.383A2.572,2.572,0,0,1,251.99,425.258Z" transform="translate(-184.097 -411.283)" fill="#fff"/>
        <path id="Path_2914" data-name="Path 2914" d="M271.389,422.929a15.975,15.975,0,0,1-2.249.26,17.063,17.063,0,0,0,2.229-.429C271.376,422.812,271.383,422.871,271.389,422.929Z" transform="translate(-190.152 -410.534)" fill="#fff"/>
        <path id="Path_2915" data-name="Path 2915" d="M229.78,414.558l-.1.026a1.676,1.676,0,0,1,.143.286C229.813,414.766,229.8,414.656,229.78,414.558Zm-1.391-5.635-4.654.227,4.667-.2ZM147.717,420.87c-.02-.013-.039-.033-.059-.046a.093.093,0,0,0-.039.013c.033.02.072.039.1.059s.1.052.143.078C147.815,420.935,147.763,420.9,147.717,420.87Zm67.646-3.3a2.379,2.379,0,0,1,.11.384l.039-.026A2.57,2.57,0,0,0,215.363,417.568Zm-.643-.988a.358.358,0,0,0-.059-.046,3.757,3.757,0,0,1,.7,1.034A2.554,2.554,0,0,0,214.72,416.58Zm-27.736-.279a1.139,1.139,0,0,0-.032.26.071.071,0,0,0,.006.039A.663.663,0,0,0,186.984,416.3Zm-25.877-12.35a.122.122,0,0,0-.013.052l.026-.007A.094.094,0,0,1,161.108,403.95Z" transform="translate(-147.62 -403.95)" fill="#1e22aa"/>
      </g>
      <path id="Path_2916" data-name="Path 2916" d="M269.387,411.626l-4.667.2,4.654-.228Z" transform="translate(-160.915 -390.644)" fill="#fff"/>
      <path id="Path_2917" data-name="Path 2917" d="M251.462,424.344a3.758,3.758,0,0,0-.7-1.034.357.357,0,0,1,.059.046A2.554,2.554,0,0,1,251.462,424.344Z" transform="translate(-156.029 -394.742)" fill="#fff"/>
      <path id="Path_2918" data-name="Path 2918" d="M251.99,425.258l-.039.026a2.38,2.38,0,0,0-.11-.383A2.572,2.572,0,0,1,251.99,425.258Z" transform="translate(-156.407 -395.299)" fill="#fff"/>
      <g id="Group_2233" data-name="Group 2233" transform="translate(2.6 2.587)">
        <path id="Path_2919" data-name="Path 2919" d="M147.867,430.053c-.046-.026-.1-.052-.143-.078s-.072-.039-.1-.059a.092.092,0,0,1,.039-.013.12.12,0,0,1,.046-.013l.013.058C147.763,429.981,147.815,430.014,147.867,430.053Z" transform="translate(-122.53 -399.633)" fill="#fff"/>
        <path id="Path_2920" data-name="Path 2920" d="M159.6,409.5a.4.4,0,0,1,.085.007l-.65.305A.641.641,0,0,1,159.6,409.5Z" transform="translate(-126.523 -392.496)" fill="#fff"/>
        <path id="Path_2921" data-name="Path 2921" d="M208.137,423.249a.07.07,0,0,1-.006-.039,1.14,1.14,0,0,1,.032-.26A.662.662,0,0,1,208.137,423.249Z" transform="translate(-143.708 -397.203)" fill="#fff"/>
        <path id="Path_2922" data-name="Path 2922" d="M251.462,424.344a3.758,3.758,0,0,0-.7-1.034.357.357,0,0,1,.059.046A2.554,2.554,0,0,1,251.462,424.344Z" transform="translate(-158.629 -397.329)" fill="#fff"/>
        <path id="Path_2923" data-name="Path 2923" d="M251.99,425.258l-.039.026a2.38,2.38,0,0,0-.11-.383A2.572,2.572,0,0,1,251.99,425.258Z" transform="translate(-159.007 -397.886)" fill="#fff"/>
        <path id="Path_2924" data-name="Path 2924" d="M215.5,402.554c-.487-.059-.982-.091-1.456-.1l-37.739,2.6c-.455-.033-1.229-.286-1.229-1a.322.322,0,0,1,.325-.325h.995l33.807-2.112,4.433-.221.539-.026a1.843,1.843,0,0,0-.624-.988c-1.105-.949-3.335-1.124-4.908-.994l-2.431.2c-7.651.63-18.135,1.5-31.226,1.846h-.039a27.918,27.918,0,0,1-4.8-1.151,52.351,52.351,0,0,0-6.058-1.508c-.832-.11-2.314-.286-4.089-.481H161c-.578-.059-1.189-.124-1.814-.189-.572-.065-1.163-.13-1.755-.2-2.769-.286-5.681-.572-7.794-.773-.676-.065-1.274-.117-1.755-.156a.324.324,0,0,1-.273-.2l-.026.007a.122.122,0,0,1,.013-.052.3.3,0,0,1-.013-.111.312.312,0,0,1,.253-.286,1.245,1.245,0,0,1,.891-.455,93.56,93.56,0,0,1,10.946.143,55.575,55.575,0,0,1,4.667-3.218,11.611,11.611,0,0,0,5.265-7.917,2.426,2.426,0,0,0-.156-1.554,3.1,3.1,0,0,0-1.307.715c-11.772,8.5-19.357,8.47-24.9,8.437-4.362-.02-7.235-.026-10.537,3.738-.1.123-.214.247-.318.377a14.641,14.641,0,0,0-.9,1.254c-.1.156-.2.312-.286.468a1.3,1.3,0,0,1-.793.6l.046.188L109.02,398v17.641l22.172-1.157a10.183,10.183,0,0,1-2.7-8.339,1.088,1.088,0,0,1,.085-.325.009.009,0,0,1,0-.013c-.026-.351-.033-.715-.026-1.079a.329.329,0,0,1,.325-.318h.007a.313.313,0,0,1,.292.195.32.32,0,0,1,.026.137v.357a10.788,10.788,0,0,0,.643,3.7,8.786,8.786,0,0,0,1.391,2.438,10.083,10.083,0,0,0,2.873,2.392.093.093,0,0,1,.039-.013.12.12,0,0,1,.045-.013l.013.059c.046.033.1.065.15.1a.006.006,0,0,0,.007.007c.332.182.676.344,1.021.5h.007a16.894,16.894,0,0,0,2.353.838h.013c.364.1.735.2,1.1.28h.013c.6.137,1.2.247,1.787.332.176.026.351.052.52.072a31.253,31.253,0,0,0,6.344.163l24.271.728,25.747-3.809a18.588,18.588,0,0,0,3.477-.7c.631-.208,1.008-.41,1.014-.565a3.363,3.363,0,0,0-.065-.865,2.38,2.38,0,0,0-.11-.384,3.759,3.759,0,0,0-.7-1.034v-.006c-1.547-1.378-4.6-1.086-4.622-1.086l-20.878,1.95a1.311,1.311,0,0,1-.969-.221.763.763,0,0,1-.266-.611.322.322,0,0,1,.325-.325h.995l20.631-1.95q4.037-.1,5.811,1.671a3.815,3.815,0,0,1,.994,1.651,3.766,3.766,0,0,1,.1.423c3.048-.566,5.609-.884,7.683-1.144.78-.1,1.5-.189,2.145-.28a17.068,17.068,0,0,0,2.23-.429c.631-.188.988-.4,1-.7a4.716,4.716,0,0,0-.013-.611,1.679,1.679,0,0,0-.143-.286l.1-.026a2.815,2.815,0,0,0-.884-1.612,5.69,5.69,0,0,0-3.464-1.163,10.677,10.677,0,0,0-1.612.039l-34.554,2.6a.94.94,0,0,1-.9-1,.322.322,0,0,1,.325-.325h.663l32.507-2.223c.481-.039.93-.065,1.359-.065,4.446-.085,6.377,1.449,7.2,2.6a3.877,3.877,0,0,1,.462.839c.019.045.032.085.045.124,1.891.1,2.639-.2,2.925-.488a.645.645,0,0,0,.2-.513C220.45,403.731,218,402.834,215.5,402.554Zm-42.055,6.832v.013a.669.669,0,0,1-.52.429c-.033,0-.065.007-.1.007a.655.655,0,0,1-.643-.553,1.511,1.511,0,0,0-.065-.286c-.728-2.49-6.091-4.609-15.171-5.98-.188-.026-.383-.059-.572-.084-.488-.072-.975-.137-1.462-.2s-.982-.13-1.463-.189c-3.237-.383-6.24-.611-8.346-.741-1.859-.117-3.023-.156-3.055-.156a.652.652,0,0,1-.63-.67.6.6,0,0,1,.1-.318.641.641,0,0,1,.566-.312.4.4,0,0,1,.085.007c.006-.007.006-.007.013,0h.026c1.43.045,6.481.253,12.123.962.494.059.994.124,1.5.2s1,.137,1.508.215c7.7,1.19,15.5,3.367,16.127,7.345v.013A.663.663,0,0,1,173.448,409.386Z" transform="translate(-109.02 -383.34)" fill="#fff"/>
        <path id="Path_2925" data-name="Path 2925" d="M271.389,422.929a15.975,15.975,0,0,1-2.249.26,17.063,17.063,0,0,0,2.229-.429C271.376,422.812,271.383,422.871,271.389,422.929Z" transform="translate(-165.062 -397.137)" fill="#fff"/>
        <path id="Path_2926" data-name="Path 2926" d="M274.013,420.582a1.679,1.679,0,0,0-.143-.286l.1-.026C273.987,420.368,274,420.478,274.013,420.582Z" transform="translate(-166.717 -396.265)" fill="#fff"/>
        <path id="Path_2927" data-name="Path 2927" d="M235.645,408.709l-4.654.228,4.667-.2Zm.448,7.254a17.069,17.069,0,0,1-2.229.429,15.974,15.974,0,0,0,2.249-.26C236.106,416.074,236.1,416.015,236.093,415.963Zm-13.475,1.391a2.38,2.38,0,0,1,.111.383l.039-.026A2.568,2.568,0,0,0,222.619,417.354ZM168.35,403.626a.3.3,0,0,0,.013.111,1.085,1.085,0,0,1,.241-.4A.312.312,0,0,0,168.35,403.626Z" transform="translate(-129.785 -390.34)" fill="#1e22aa"/>
      </g>
      <g id="Group_2234" data-name="Group 2234" transform="translate(35.002 19.591)">
        <path id="Path_2928" data-name="Path 2928" d="M190.921,418.243a1.139,1.139,0,0,0-.032.26.07.07,0,0,0,.007.039v.013a.669.669,0,0,1-.52.429c-.033,0-.065.007-.1.007a.655.655,0,0,1-.643-.552,1.511,1.511,0,0,0-.065-.286c-.728-2.49-6.091-4.609-15.171-5.98-.188-.026-.383-.059-.572-.085-.488-.072-.975-.136-1.463-.2s-.982-.13-1.462-.189c-3.237-.384-6.24-.611-8.346-.741-1.859-.117-3.023-.156-3.055-.156a.652.652,0,0,1-.63-.669.6.6,0,0,1,.1-.319l.65-.306c.007-.007.007-.007.013,0h.026c1.43.045,6.48.254,12.123.962.494.059.995.124,1.5.2s1,.137,1.508.215c7.7,1.189,15.5,3.367,16.127,7.345Z" transform="translate(-158.869 -409.501)" fill="#1e22aa"/>
        <path id="Path_2929" data-name="Path 2929" d="M159.6,409.5a.4.4,0,0,1,.085.007l-.65.305A.641.641,0,0,1,159.6,409.5Z" transform="translate(-158.926 -409.5)" fill="#1e22aa"/>
        <path id="Path_2930" data-name="Path 2930" d="M208.137,423.249a.07.07,0,0,1-.006-.039,1.14,1.14,0,0,1,.032-.26A.662.662,0,0,1,208.137,423.249Z" transform="translate(-176.111 -414.207)" fill="#1e22aa"/>
      </g>
    </g>
  </g>
  <g id="Mask_Group_62" data-name="Mask Group 62" transform="translate(0)" clip-path="url(#clip-path-2)">
    <g id="Group_2241" data-name="Group 2241" transform="translate(-5.959 65.109)">
      <g id="Group_2236" data-name="Group 2236" transform="translate(59.477 9.461)">
        <path id="Path_2931" data-name="Path 2931" d="M197.913,499.252a.332.332,0,0,1,.435.143,5.389,5.389,0,0,0,1.794,1.865c1.762,1.112,5.077-1.287,5.109-1.313a.323.323,0,0,1,.455.065.329.329,0,0,1-.072.455,8.976,8.976,0,0,1-4.381,1.729,2.686,2.686,0,0,1-1.463-.39,5.916,5.916,0,0,1-2.021-2.119A.321.321,0,0,1,197.913,499.252Z" transform="translate(-197.733 -499.219)" fill="#fff"/>
      </g>
      <g id="Hand_Neutral_Thick_ThinLines" data-name="Hand_Neutral_Thick+ThinLines" transform="translate(0 0)">
        <g id="Group_2237" data-name="Group 2237">
          <path id="Path_2932" data-name="Path 2932" d="M182.243,518.3c-.052.02-.1.039-.143.059l.7-.033Z" transform="translate(-132.784 -496.436)" fill="#fff"/>
          <path id="Path_2933" data-name="Path 2933" d="M210.7,502.79c-.214-.007-.423-.013-.624-.026H174.552a.321.321,0,0,0-.318.267.655.655,0,0,0,.169.618,1.339,1.339,0,0,0,1.033.26h26.111c-.65.494-2.581.689-3.959.67l-37.674,1.8c1.807-.559,4.03-1.144,6.857-1.755a33.306,33.306,0,0,0,3.289-1.007c.643-.234,1.242-.481,1.794-.728a.571.571,0,0,1,.11-.052,18.211,18.211,0,0,0,2.7-1.534.755.755,0,0,0,.292.611.9.9,0,0,0,.715.1h39.709C214.728,502.621,212.538,502.829,210.7,502.79Zm5.155-1.865c-.1.013-.709.02-1.716.026-6.09.033-26.819,0-38.487-.026h-.468a12.275,12.275,0,0,0,.988-.832c2.178-.033,33.976-.462,34.574-.481.455-.007,3.464-.682,4.732-2.828a3.993,3.993,0,0,0,.436-1.053c2.119-.052,4.394.24,4.42.78C220.416,498.435,219.954,500.463,215.859,500.924Zm7.4-4.544c-.124-2.776-3.088-3.439-5.441-3.562a4.492,4.492,0,0,0-1.313-2.535c-1.547-1.482-3.92-1.625-6.058-1.573-10,.357-20.657-1.423-28.438-2.73-4.849-.812-8.359-1.4-10.5-1.306-3.881.123-23.173.7-24.187.728-.774,0-8.645.078-14.6,3.022L107.6,487.118a1.281,1.281,0,0,0-.962.357,1.3,1.3,0,0,0-.41.943V508.8a1.288,1.288,0,0,0,.41.943,1.27,1.27,0,0,0,.891.358h.071l19.416-1.014a13.09,13.09,0,0,0,2.386,1.846,23.825,23.825,0,0,0,12.539,3.445,21.854,21.854,0,0,0,9.666-2.054c.566-.292,1.105-.6,1.651-.917a33.864,33.864,0,0,1,3.887-1.969l40.5-1.937c3.588.059,5.376-.806,6.247-1.813h6.117c4.836.26,7.02-.819,7.923-2.165C222.489,502.367,223.373,499.085,223.256,496.381Zm-9.145.28a3.476,3.476,0,0,1-.384.435c-1.7,1.632-4.583,1.482-4.634,1.482l-31.87.371a6.884,6.884,0,0,0,1.229-2.288c.013-.059.033-.117.046-.169a4.3,4.3,0,0,0-1.1-4.29,4.049,4.049,0,0,0-.91-.644,5.315,5.315,0,0,0-4.153-.221c-12.662,3.582-19.435,1.482-24.882-.2-.533-.169-1.059-.325-1.566-.481-.468-.137-.929-.267-1.391-.39l-.137.507-.033.123-.163.624c.936.247,1.892.546,2.906.858,5.609,1.736,12.584,3.9,25.643.2a4.062,4.062,0,0,1,3.283.188,2.679,2.679,0,0,1,.514.377,2.988,2.988,0,0,1,.734,3.022,5.088,5.088,0,0,1-.163.507,6.687,6.687,0,0,1-1.586,2.288c-.176.175-.37.351-.572.52a14.278,14.278,0,0,1-2.307,1.56c-.117.059-.234.123-.351.188a26.829,26.829,0,0,1-5.779,2.125c-.852.182-1.651.364-2.4.546A58.953,58.953,0,0,0,157,505.994c-.468.182-.9.358-1.313.533l.559.026-.7.033q-.429.185-.819.371c-.26.117-.513.24-.747.357-.878.442-1.618.865-2.333,1.274-.514.3-1.021.585-1.553.865-.228.117-.488.24-.78.357a21.45,21.45,0,0,1-17.05-.994c-.39-.2-.773-.416-1.157-.65-.279-.176-.553-.358-.806-.546a9.517,9.517,0,0,1-1.391-1.235,7.671,7.671,0,0,1-.988-1.293c-.071-.117-.136-.234-.2-.351l-.559.306-.013.007-.572.305-1.716.93c.059.1.111.2.176.306l-16.2.845V489.79l22.568,1.177c-.292.137-.572.28-.845.436a.324.324,0,1,0,.318.565.714.714,0,0,1,.1-.052,16,16,0,0,1,1.866-.877c.045-.02.1-.039.15-.059.526-.208,1.085-.4,1.651-.572s1.131-.344,1.716-.487c1.261-.325,2.548-.585,3.777-.786a65.034,65.034,0,0,1,7.241-.806s20.248-.6,24.239-.728c1.865-.091,5.421.514,9.919,1.267,7.9,1.326,18.733,3.146,29.016,2.769,2.087-.052,3.341.188,3.939.767a1.728,1.728,0,0,1,.488,1.294A4.612,4.612,0,0,1,214.111,496.66Z" transform="translate(-106.23 -484.664)" fill="#1e22aa"/>
          <path id="Path_2934" data-name="Path 2934" d="M216.369,495.272a4.612,4.612,0,0,1-.858,2.964,3.475,3.475,0,0,1-.384.436c-1.7,1.631-4.583,1.482-4.634,1.482l-31.87.37a6.883,6.883,0,0,0,1.229-2.288c.013-.059.033-.117.046-.169a4.3,4.3,0,0,0-1.105-4.29,4.048,4.048,0,0,0-.91-.644,5.315,5.315,0,0,0-4.154-.221c-12.662,3.582-19.435,1.482-24.882-.2-.533-.169-1.06-.325-1.567-.481-.468-.137-.929-.266-1.391-.39l-.136.507-.032.124-.163.624c.936.247,1.891.546,2.906.858,5.609,1.736,12.584,3.9,25.643.2a4.062,4.062,0,0,1,3.283.188,2.681,2.681,0,0,1,.513.377,2.988,2.988,0,0,1,.734,3.023,5.084,5.084,0,0,1-.163.507,6.686,6.686,0,0,1-1.586,2.288c-.176.176-.37.351-.572.52a14.28,14.28,0,0,1-2.307,1.56c-.117.059-.234.123-.351.188a26.827,26.827,0,0,1-5.779,2.126c-.851.182-1.651.364-2.4.546a58.951,58.951,0,0,0-7.072,2.093c-.468.182-.9.358-1.313.533-.052.02-.1.039-.143.059q-.429.185-.819.371c-.26.117-.513.24-.747.357-.878.442-1.618.865-2.333,1.274-.514.3-1.021.585-1.553.865-.228.117-.488.24-.78.357a21.451,21.451,0,0,1-17.05-.994c-.39-.2-.773-.416-1.157-.65-.28-.176-.553-.357-.806-.546a9.518,9.518,0,0,1-1.391-1.235,7.67,7.67,0,0,1-.988-1.294c-.072-.117-.137-.234-.2-.351l-.559.306-.013.007-.572.305-1.716.93c.058.1.11.2.176.306l-16.2.845V491.366l22.568,1.177c-.293.137-.572.279-.845.436a.324.324,0,1,0,.318.565.714.714,0,0,1,.1-.052,16,16,0,0,1,1.866-.878c.046-.02.1-.039.15-.059.526-.208,1.085-.4,1.651-.572s1.131-.345,1.716-.487c1.261-.325,2.548-.585,3.777-.786a65.035,65.035,0,0,1,7.241-.806s20.248-.6,24.239-.728c1.865-.091,5.421.513,9.919,1.267,7.9,1.326,18.733,3.146,29.016,2.769,2.087-.052,3.341.189,3.939.767A1.728,1.728,0,0,1,216.369,495.272Z" transform="translate(-107.63 -486.24)" fill="#fff"/>
          <path id="Path_2935" data-name="Path 2935" d="M182.243,518.3c-.052.02-.1.039-.143.059l.7-.033Z" transform="translate(-132.784 -496.436)" fill="#1e22aa"/>
        </g>
        <g id="Group_2238" data-name="Group 2238" transform="translate(49.316 11.061)">
          <path id="Path_2936" data-name="Path 2936" d="M182.243,518.3c-.052.02-.1.039-.143.059l.7-.033Z" transform="translate(-182.1 -507.498)" fill="#fff"/>
          <path id="Path_2937" data-name="Path 2937" d="M252.991,506.88c-.1.013-.708.019-1.716.026-6.091.032-26.819,0-38.487-.026h-.468a12.271,12.271,0,0,0,.988-.832c2.178-.032,33.976-.461,34.574-.481.455-.007,3.465-.683,4.732-2.828a3.993,3.993,0,0,0,.435-1.053c2.119-.052,4.394.241,4.42.78C257.547,504.391,257.086,506.419,252.991,506.88Z" transform="translate(-192.677 -501.681)" fill="#fff"/>
          <path id="Path_2938" data-name="Path 2938" d="M244.291,510.969c-.657.611-2.847.819-4.68.78-.214-.007-.422-.013-.624-.026H203.458a.321.321,0,0,0-.318.267.655.655,0,0,0,.169.618,1.339,1.339,0,0,0,1.034.26h26.111c-.65.494-2.581.689-3.958.669l-37.674,1.8c1.807-.559,4.03-1.144,6.858-1.755a33.3,33.3,0,0,0,3.289-1.008c.644-.234,1.242-.481,1.794-.728a.575.575,0,0,1,.111-.052,18.208,18.208,0,0,0,2.7-1.534.755.755,0,0,0,.293.611.9.9,0,0,0,.715.1Z" transform="translate(-184.452 -504.684)" fill="#fff"/>
        </g>
        <g id="Thumb_ThickLine" transform="translate(49.316 21.864)">
          <g id="Group_2239" data-name="Group 2239">
            <path id="Path_2939" data-name="Path 2939" d="M182.8,518.326l-.7.033c.045-.02.091-.039.143-.059Z" transform="translate(-182.1 -518.3)" fill="#fff"/>
            <path id="Path_2940" data-name="Path 2940" d="M182.8,518.326l-.7.033c.045-.02.091-.039.143-.059Z" transform="translate(-182.1 -518.3)" fill="#1e22aa"/>
          </g>
        </g>
        <g id="Thumb" transform="translate(49.316 9.461)">
          <g id="Group_2240" data-name="Group 2240" transform="translate(0 12.403)">
            <path id="Path_2941" data-name="Path 2941" d="M182.8,518.326l-.7.033c.045-.02.091-.039.143-.059Z" transform="translate(-182.1 -518.3)" fill="#fff"/>
            <path id="Path_2942" data-name="Path 2942" d="M182.8,518.326l-.7.033c.045-.02.091-.039.143-.059Z" transform="translate(-182.1 -518.3)" fill="#1e22aa"/>
          </g>
          <path id="Path_2943" data-name="Path 2943" d="M205.635,500.468a8.976,8.976,0,0,1-4.381,1.729,2.686,2.686,0,0,1-1.463-.39,5.916,5.916,0,0,1-2.021-2.119.321.321,0,0,1,.143-.436.332.332,0,0,1,.435.143,5.389,5.389,0,0,0,1.794,1.865c1.762,1.112,5.077-1.287,5.109-1.313a.323.323,0,0,1,.455.065A.329.329,0,0,1,205.635,500.468Z" transform="translate(-187.572 -499.219)" fill="#1e22aa"/>
        </g>
      </g>
    </g>
  </g>
</svg>
