<svg id="Component_171_9" data-name="Component 171 – 9" xmlns="http://www.w3.org/2000/svg" xmlns:xlink="http://www.w3.org/1999/xlink" width="130" height="130" viewBox="0 0 130 130">
  <defs>
    <clipPath id="clip-path">
      <circle id="Ellipse_460" data-name="Ellipse 460" cx="65" cy="65" r="65" transform="translate(0 0)" fill="#cbecf1"/>
    </clipPath>
    <clipPath id="clip-path-2">
      <circle id="Ellipse_462" data-name="Ellipse 462" cx="65" cy="65" r="65" transform="translate(0 0)" fill="#cbecf1" stroke="#66c9d7" stroke-width="6"/>
    </clipPath>
  </defs>
  <g id="Mask_Group_63" data-name="Mask Group 63" opacity="0.502" clip-path="url(#clip-path)">
    <g id="Group_2243" data-name="Group 2243" transform="translate(-5.958 46.152)">
      <g id="Group_2242" data-name="Group 2242" transform="translate(0 0)">
        <path id="Path_2944" data-name="Path 2944" d="M715.473,737.849l-1.391-.8a5.592,5.592,0,0,0,4.563-3,5.891,5.891,0,0,0,.728-4.576,7.438,7.438,0,0,0-3.244-4.076l-38.11-22a57.463,57.463,0,0,1,8.951-.663h.182a.345.345,0,0,0,.117-.006,10.823,10.823,0,0,0,9.126-5.831,5.416,5.416,0,0,0-.071-5.4,4.145,4.145,0,0,0-3.952-1.593c-18.337,1.677-22.841.4-26.819-.715A31.481,31.481,0,0,0,659.82,688a30.552,30.552,0,0,0-13.917,1.937H610.79v34.034H635.7a26.765,26.765,0,0,0,6.11,5.538l42.965,25.064c.026.013.046.026.072.039a7.692,7.692,0,0,0,3.328.806,4.527,4.527,0,0,0,4.141-2.32,5.1,5.1,0,0,0,.617-4.121.123.123,0,0,1-.013-.052l7.1,4.108a7.834,7.834,0,0,0,5.571,1.3,5.192,5.192,0,0,0,3.373-2.62,4.744,4.744,0,0,0,.513-3.822,5.082,5.082,0,0,0-.26-.682l.507.292a7.469,7.469,0,0,0,5.168.923,5.418,5.418,0,0,0,3.4-2.71,4.936,4.936,0,0,0,.565-3.848A7.491,7.491,0,0,0,715.473,737.849Zm.572,6.565a2.915,2.915,0,0,1-1.774,1.489,4.884,4.884,0,0,1-3.211-.63l-34.73-20.053a1.964,1.964,0,0,0-2.646.754,1.888,1.888,0,0,0,.63,2.62l29.907,17.264a.308.308,0,0,0,.065.033,5.822,5.822,0,0,1,2.7,2.756,2.144,2.144,0,0,1-.273,1.768,2.61,2.61,0,0,1-1.683,1.378,5.387,5.387,0,0,1-3.582-.93c-.026-.019-.059-.039-.085-.058L671.52,733.572a2.4,2.4,0,0,0-1.774-.468,1.745,1.745,0,0,0-1.183.852,1.891,1.891,0,0,0,.228,2.2,2.646,2.646,0,0,0,.689.585l19.2,11.089a.3.3,0,0,1,.065.033,3.739,3.739,0,0,1,1.7,1.878,2.59,2.59,0,0,1-.39,2.06c-1.06,1.839-3.7.656-4.01.507l-42.913-25.032a22.658,22.658,0,0,1-4-3.3c-.4-.4-.793-.832-1.183-1.3q-.37-.429-.722-.9c-.1-.136-.2-.266-.3-.4a15.789,15.789,0,0,1-2.639-14.346,1.25,1.25,0,0,0-.052-.858,1.3,1.3,0,0,0-2.444.123,18.168,18.168,0,0,0,2.054,15.08H613.39V692.537h27.528a16.925,16.925,0,0,0-2.34,1.937,1.3,1.3,0,0,0,1.352,2.139,1.339,1.339,0,0,0,.488-.306,18.312,18.312,0,0,1,5.922-3.77,26.474,26.474,0,0,1,3.835-1.248c.429-.111.865-.208,1.3-.3a27.46,27.46,0,0,1,8.073-.409,30.151,30.151,0,0,1,5.3,1.1c4.193,1.183,8.938,2.522,27.755.8a1.65,1.65,0,0,1,1.593.5,3.054,3.054,0,0,1-.156,2.815c-.871,1.865-3.146,3.971-6.948,4.329h-.117a57.6,57.6,0,0,0-12.415,1.267c-.6.137-1.209.286-1.8.462-.572.156-1.131.331-1.684.526a23.016,23.016,0,0,0-2.75,1.138c-.637.318-1.365.7-2.164,1.124-3.77,2-9.347,4.947-14.69,5.317-.435.026-.865.039-1.3.033a10.819,10.819,0,0,1-1.3-.078,11.254,11.254,0,0,1-3.595-.988,1.3,1.3,0,0,0-1.729.617,1.3,1.3,0,0,0,.624,1.729,13.874,13.874,0,0,0,4.7,1.255,12.442,12.442,0,0,0,1.3.065c.072.007.137.007.208.007.364,0,.728-.013,1.092-.032,5.935-.358,11.876-3.5,15.906-5.623.78-.416,1.482-.786,2.1-1.092a24.712,24.712,0,0,1,4.706-1.683l40.645,23.472c3.2,1.885,1.859,4.583,1.56,5.1-1.671,2.9-4.83,1.307-5.155,1.125l-29.452-17a1.971,1.971,0,1,0-2.1,3.315c.032.019.058.039.091.059l34.418,19.871a4.9,4.9,0,0,1,2.158,2.444A2.334,2.334,0,0,1,716.045,744.414Z" transform="translate(-610.79 -687.852)" fill="#1e22aa"/>
        <path id="Path_2945" data-name="Path 2945" d="M717.75,743.959a2.335,2.335,0,0,1-.305,1.853,2.915,2.915,0,0,1-1.774,1.488,4.885,4.885,0,0,1-3.211-.63l-34.73-20.053a1.964,1.964,0,0,0-2.645.754,1.888,1.888,0,0,0,.63,2.62l29.907,17.264a.305.305,0,0,0,.065.032,5.822,5.822,0,0,1,2.7,2.756,2.145,2.145,0,0,1-.273,1.768,2.61,2.61,0,0,1-1.684,1.378,5.388,5.388,0,0,1-3.581-.929c-.026-.02-.059-.039-.085-.058L672.92,734.969a2.4,2.4,0,0,0-1.775-.468,1.745,1.745,0,0,0-1.183.852,1.891,1.891,0,0,0,.228,2.2,2.647,2.647,0,0,0,.689.585l19.2,11.089a.3.3,0,0,1,.065.033,3.738,3.738,0,0,1,1.7,1.878,2.59,2.59,0,0,1-.39,2.06c-1.06,1.84-3.7.657-4.011.507l-42.913-25.032a22.653,22.653,0,0,1-4-3.3c-.4-.4-.793-.832-1.183-1.3q-.371-.429-.722-.9c-.1-.136-.2-.266-.3-.4a15.789,15.789,0,0,1-2.639-14.345,1.251,1.251,0,0,0-.052-.858,1.3,1.3,0,0,0-2.444.124,18.169,18.169,0,0,0,2.054,15.08H614.79V693.935h27.528a16.921,16.921,0,0,0-2.34,1.937,1.3,1.3,0,0,0,1.352,2.138,1.34,1.34,0,0,0,.488-.305,18.312,18.312,0,0,1,5.922-3.77,26.477,26.477,0,0,1,3.835-1.248c.429-.11.865-.208,1.3-.3a27.46,27.46,0,0,1,8.073-.41,30.15,30.15,0,0,1,5.3,1.1c4.193,1.183,8.938,2.522,27.755.8a1.65,1.65,0,0,1,1.593.5,3.054,3.054,0,0,1-.156,2.815c-.871,1.865-3.146,3.971-6.949,4.329h-.117a57.6,57.6,0,0,0-12.415,1.268c-.6.136-1.209.286-1.8.462-.572.156-1.131.331-1.684.526a23.011,23.011,0,0,0-2.75,1.137c-.637.318-1.365.7-2.164,1.125-3.77,2-9.347,4.947-14.69,5.317-.436.026-.865.039-1.3.032a10.818,10.818,0,0,1-1.3-.078,11.256,11.256,0,0,1-3.595-.988,1.3,1.3,0,0,0-1.729.617,1.3,1.3,0,0,0,.624,1.729,13.875,13.875,0,0,0,4.7,1.255,12.425,12.425,0,0,0,1.3.065c.072.007.137.007.208.007.364,0,.728-.013,1.092-.033,5.934-.357,11.875-3.5,15.905-5.622.78-.416,1.482-.786,2.1-1.092a24.71,24.71,0,0,1,4.706-1.683l40.645,23.472c3.2,1.885,1.859,4.583,1.56,5.1-1.67,2.9-4.83,1.307-5.154,1.125l-29.452-17a1.971,1.971,0,1,0-2.1,3.315c.032.02.058.039.091.059l34.418,19.871A4.9,4.9,0,0,1,717.75,743.959Z" transform="translate(-612.19 -689.25)" fill="#fff"/>
      </g>
    </g>
  </g>
  <g id="Mask_Group_64" data-name="Mask Group 64" clip-path="url(#clip-path-2)">
    <g id="Group_2246" data-name="Group 2246" transform="translate(-6.499 13.327)">
      <g id="Group_2244" data-name="Group 2244" transform="translate(2.6 2.556)">
        <path id="Path_2946" data-name="Path 2946" d="M710.895,528.776a5.359,5.359,0,0,1-2.6,2.633.646.646,0,0,0-.091.052l-29.848,17.225a2.447,2.447,0,0,0-1.293,1.307,1.753,1.753,0,0,0,.15,1.45,2.043,2.043,0,0,0,2.866.6l19.2-11.089c.02-.007.046-.026.065-.032a3.636,3.636,0,0,1,2.477-.533,2.579,2.579,0,0,1,1.593,1.359c1.06,1.846-1.281,3.536-1.573,3.731l-43.128,24.648a23.555,23.555,0,0,1-7.839,2.418c-.422.045-.858.084-1.3.11a16.59,16.59,0,0,1-7.365-1.183,15.943,15.943,0,0,1-5.454-3.809,1.325,1.325,0,0,0-1.839-.045,1.3,1.3,0,0,0-.045,1.833,20.607,20.607,0,0,0,2.236,2.021H612.79V542.634h16.7c-1.989,5.142-2.62,10.764-1.469,15.035a1.3,1.3,0,0,0,2.535-.1,1.224,1.224,0,0,0-.02-.572c-1.092-4.043-.351-9.49,1.749-14.359.182-.442.383-.871.6-1.3s.442-.878.682-1.3a23.467,23.467,0,0,1,1.58-2.47,28.529,28.529,0,0,1,3.607-4.036c3.114-3.042,6.65-6.494,14.567-23.641.325-.7.741-1.086,1.229-1.124a3.04,3.04,0,0,1,2.359,1.54c1.183,1.677,1.872,4.706.28,8.177A57.712,57.712,0,0,0,652,529.972c-.182.591-.351,1.189-.494,1.787-.15.572-.28,1.151-.39,1.723a24.805,24.805,0,0,0-.384,2.951c-.046.7-.078,1.528-.11,2.431-.013.377-.026.767-.046,1.17a52.922,52.922,0,0,1-1.007,9.172,23.573,23.573,0,0,1-1.3,4.173,12.848,12.848,0,0,1-4.381,5.714,1.274,1.274,0,0,0-.533.832,1.3,1.3,0,0,0,2.022,1.3,13.885,13.885,0,0,0,2.892-2.717,16.336,16.336,0,0,0,1.3-1.9,18.8,18.8,0,0,0,1.3-2.7c1.983-5.005,2.2-10.849,2.353-14.943.032-.878.059-1.677.1-2.359a23.747,23.747,0,0,1,.9-4.914l40.651-23.472c3.23-1.826,4.895.682,5.2,1.2,1.671,2.9-1.287,4.829-1.606,5.025l-29.445,17a1.972,1.972,0,1,0,1.82,3.478c.032-.013.065-.032.091-.046l34.418-19.87a4.937,4.937,0,0,1,3.2-.65A2.341,2.341,0,0,1,710,515.548a2.882,2.882,0,0,1,.4,2.288,4.82,4.82,0,0,1-2.152,2.457l-34.73,20.059a1.96,1.96,0,0,0-.669,2.665,1.9,1.9,0,0,0,1.644,1h.013a1.9,1.9,0,0,0,.923-.24l29.906-17.264a.576.576,0,0,0,.065-.039,5.8,5.8,0,0,1,3.738-.969,2.129,2.129,0,0,1,1.391,1.118A2.621,2.621,0,0,1,710.895,528.776Z" transform="translate(-612.79 -507.56)" fill="#fff"/>
      </g>
      <g id="Hand_30Up" transform="translate(0)">
        <g id="Group_2245" data-name="Group 2245">
          <path id="Path_2947" data-name="Path 2947" d="M711.393,523.948a4.784,4.784,0,0,0-3.055-2.353,5.541,5.541,0,0,0-.721-.111l.507-.292a7.484,7.484,0,0,0,3.387-4.011,5.427,5.427,0,0,0-.656-4.31,4.891,4.891,0,0,0-3.048-2.4,7.465,7.465,0,0,0-5.168.923l-1.385.8a5.592,5.592,0,0,0-.325-5.447,5.887,5.887,0,0,0-3.6-2.925,7.47,7.47,0,0,0-5.148.773l-38.11,22a58.313,58.313,0,0,1,3.991-8.236c.02-.039.039-.071.058-.1a10.858,10.858,0,0,0-.487-10.823,5.421,5.421,0,0,0-4.719-2.639,4.135,4.135,0,0,0-3.354,2.626c-7.715,16.718-11.069,19.988-14.027,22.867a32.247,32.247,0,0,0-3.894,4.375,27.045,27.045,0,0,0-2.4,4H608.79v34.034h31.6a18.952,18.952,0,0,0,6.617,1.144,26.818,26.818,0,0,0,11.57-2.821l43.193-24.681a.581.581,0,0,0,.065-.039c1.658-1.086,4.3-3.985,2.425-7.228a5.087,5.087,0,0,0-3.257-2.594c-.019-.006-.039-.006-.052-.013l7.1-4.1a7.871,7.871,0,0,0,3.913-4.173A5.225,5.225,0,0,0,711.393,523.948Zm-1.9,3.452a5.359,5.359,0,0,1-2.6,2.633.64.64,0,0,0-.091.052l-29.848,17.225a2.448,2.448,0,0,0-1.294,1.307,1.752,1.752,0,0,0,.15,1.449,2.043,2.043,0,0,0,2.866.6l19.2-11.089c.02-.007.045-.026.065-.032a3.637,3.637,0,0,1,2.477-.533,2.579,2.579,0,0,1,1.593,1.359c1.059,1.846-1.281,3.536-1.573,3.731l-43.128,24.648a23.558,23.558,0,0,1-7.839,2.418c-.422.045-.858.084-1.3.11a16.591,16.591,0,0,1-7.365-1.183,15.943,15.943,0,0,1-5.453-3.809,1.325,1.325,0,0,0-1.839-.045,1.3,1.3,0,0,0-.046,1.833,20.6,20.6,0,0,0,2.236,2.021H611.39V541.258h16.7c-1.989,5.141-2.62,10.764-1.469,15.034a1.3,1.3,0,0,0,2.535-.1,1.224,1.224,0,0,0-.019-.572c-1.092-4.043-.351-9.49,1.748-14.358.182-.442.383-.871.6-1.3s.442-.878.683-1.3a23.465,23.465,0,0,1,1.58-2.47,28.531,28.531,0,0,1,3.607-4.036c3.114-3.042,6.65-6.494,14.567-23.641.325-.7.741-1.086,1.229-1.125a3.04,3.04,0,0,1,2.359,1.541c1.183,1.677,1.872,4.706.28,8.177A57.717,57.717,0,0,0,650.6,528.6c-.182.591-.351,1.19-.494,1.787-.149.572-.279,1.151-.39,1.723a24.793,24.793,0,0,0-.384,2.951c-.045.7-.078,1.528-.11,2.431-.013.377-.026.767-.045,1.17a52.929,52.929,0,0,1-1.008,9.172,23.585,23.585,0,0,1-1.3,4.173,12.848,12.848,0,0,1-4.381,5.714,1.275,1.275,0,0,0-.533.832,1.3,1.3,0,0,0,2.022,1.3,13.886,13.886,0,0,0,2.893-2.717,16.336,16.336,0,0,0,1.3-1.9,18.8,18.8,0,0,0,1.3-2.7c1.983-5.005,2.2-10.849,2.353-14.944.032-.878.058-1.677.1-2.359a23.735,23.735,0,0,1,.9-4.914l40.651-23.472c3.231-1.826,4.895.682,5.2,1.2,1.67,2.9-1.287,4.829-1.606,5.025l-29.445,17a1.972,1.972,0,1,0,1.82,3.477c.032-.013.065-.032.091-.045l34.418-19.871a4.937,4.937,0,0,1,3.2-.65,2.341,2.341,0,0,1,1.45,1.19,2.882,2.882,0,0,1,.4,2.288,4.82,4.82,0,0,1-2.152,2.457l-34.729,20.059a1.96,1.96,0,0,0-.67,2.665,1.9,1.9,0,0,0,1.644,1h.013a1.9,1.9,0,0,0,.923-.241l29.907-17.264a.567.567,0,0,0,.065-.039,5.8,5.8,0,0,1,3.737-.969,2.129,2.129,0,0,1,1.391,1.118A2.621,2.621,0,0,1,709.495,527.4Z" transform="translate(-608.79 -503.628)" fill="#1e22aa"/>
        </g>
      </g>
    </g>
  </g>
</svg>
